<?xml version="1.0" encoding="UTF-8" standalone="no"?>
<svg
   xmlns:dc="http://purl.org/dc/elements/1.1/"
   xmlns:cc="http://creativecommons.org/ns#"
   xmlns:rdf="http://www.w3.org/1999/02/22-rdf-syntax-ns#"
   xmlns:svg="http://www.w3.org/2000/svg"
   xmlns="http://www.w3.org/2000/svg"
   version="1.1"
   id="svg2"
   viewBox="0 0 323.99996 238.50002"
   height="2.6500001in"
   width="3.5999994in">
  <defs
     id="defs4" />
  <metadata
     id="metadata7">
    <rdf:RDF>
      <cc:Work
         rdf:about="">
        <dc:format>image/svg+xml</dc:format>
        <dc:type
           rdf:resource="http://purl.org/dc/dcmitype/StillImage" />
        <dc:title></dc:title>
      </cc:Work>
    </rdf:RDF>
  </metadata>
  <g
     style="display:inline"
     transform="translate(-18.000014,6.7500004)"
     id="layer6">
    <rect
       ry="14.181067"
       y="-0.94852155"
       x="23.801477"
       height="226.89708"
       width="312.39703"
       id="rect5852"
       style="opacity:1;fill:#ffffff;fill-opacity:0.99607843;stroke:#666666;stroke-width:11.60295773;stroke-linejoin:round;stroke-miterlimit:4;stroke-dasharray:none;stroke-opacity:1" />
  </g>
  <g
     transform="translate(-18.000014,6.7500004)"
     style="display:inline;opacity:1"
     id="layer2">
    <rect
       y="108.00001"
       x="162"
       height="20.250002"
       width="9"
       id="rect4550"
       style="opacity:1;fill:#ffff00;fill-opacity:1;stroke:none;stroke-width:12;stroke-linejoin:round;stroke-miterlimit:4;stroke-dasharray:none;stroke-opacity:1" />
    <rect
       y="108.00001"
       x="189"
       height="20.25"
       width="9.0000029"
       id="rect4554"
       style="opacity:1;fill:#ffff00;fill-opacity:1;stroke:none;stroke-width:12;stroke-linejoin:round;stroke-miterlimit:4;stroke-dasharray:none;stroke-opacity:1" />
    <g
       transform="translate(7.5626976e-6,0)"
       id="g5810">
      <rect
         style="opacity:1;fill:#666666;fill-opacity:1;stroke:none;stroke-width:12;stroke-linejoin:round;stroke-miterlimit:4;stroke-dasharray:none;stroke-opacity:1"
         id="rect4822"
         width="13.5"
         height="13.500001"
         x="153"
         y="87.750008" />
      <rect
         style="opacity:1;fill:#666666;fill-opacity:1;stroke:none;stroke-width:12;stroke-linejoin:round;stroke-miterlimit:4;stroke-dasharray:none;stroke-opacity:1"
         id="rect4822-3"
         width="13.5"
         height="13.500002"
         x="193.5"
         y="87.750008" />
      <path
         id="rect4856-1"
         style="opacity:1;fill:#cccccc;fill-opacity:0.99253073;stroke:none;stroke-width:12;stroke-linejoin:round;stroke-miterlimit:4;stroke-dasharray:none;stroke-opacity:1"
         d="m 189,101.25001 9,0 0,6.75 -9,0 z m -27,0 9,0 0,6.75 -9,0 z m -11.25,0 2.25,0 0,9 -2.25,0 z m 2.25,1e-5 9,0 0,9.00001 -9,0 z m 54,-1e-5 2.25,0 0,9 -2.25,0 z m -9,1e-5 9,0 0,9.00001 -9,0 z m -18,0 9,0 0,9.00001 -9,0 z m -9,0 9,0 0,9.00001 -9,0 z m 36,9 9,0 0,9.00001 -9,0 z m -63,0 9,0 0,9.00001 -9,0 z m 0,9 9,0 0,9.00001 -9,0 z m 63,0 9,0 0,9.00001 -9,0 z m -63,9 9,0 0,9 -9,0 z m 63,0 9,0 0,9 -9,0 z m -54,0 9,0 0,9 -9,0 z m 0,-9 9,0 0,9.00001 -9,0 z m 0,-9 9,0 0,9.00001 -9,0 z m 45,18 9,0 0,9 -9,0 z m 0,-9 9,0 0,9.00001 -9,0 z m 0,-9 9,0 0,9.00001 -9,0 z m -27,0 9,0 0,9.00001 -9,0 z m 9,0 9,0 0,9.00001 -9,0 z m 0,9 9,0 0,9.00001 -9,0 z m -9,0 9,0 0,9.00001 -9,0 z m 0,9 9,0 0,9 -9,0 z m 9,0 9,0 0,9 -9,0 z m 9,0 9,0 0,9 -9,0 z m -27,0 9,0 0,9 -9,0 z m 36,27 9,0 0,9 -9,0 z m -9,0 9,0 0,9 -9,0 z m -9,0 9,0 0,9 -9,0 z m -9,0 9,0 0,9 -9,0 z m -9,0 9,0 0,9 -9,0 z m -9,0 9,0 0,9 -9,0 z m 0,-9 9,0 0,9 -9,0 z m 45,0 9,0 0,9 -9,0 z m -54,-9 9,0 0,9 -9,0 z m 63,0 9,0 0,9 -9,0 z m -27,0 9,0 0,9 -9,0 z m -9,0 9,0 0,9 -9,0 z m 18,0 9,0 0,9 -9,0 z m -27,0 9,0 0,9 -9,0 z" />
      <rect
         style="opacity:1;fill:#666666;fill-opacity:1;stroke:none;stroke-width:12;stroke-linejoin:round;stroke-miterlimit:4;stroke-dasharray:none;stroke-opacity:1"
         id="rect4873"
         width="11.25"
         height="20.250002"
         x="132.75"
         y="117.00001" />
      <rect
         style="opacity:1;fill:#666666;fill-opacity:1;stroke:none;stroke-width:12;stroke-linejoin:round;stroke-miterlimit:4;stroke-dasharray:none;stroke-opacity:1"
         id="rect4873-2"
         width="11.25"
         height="20.250004"
         x="216"
         y="117.00001" />
    </g>
  </g>
  <g
     transform="translate(-18.000014,6.7500004)"
     style="display:none;opacity:1"
     id="layer3" />
  <g
     transform="translate(-18.000014,6.7500004)"
     style="display:inline;opacity:0.776"
     id="layer5">
    <g
       transform="matrix(1,0,0,0.92242601,1.8008954e-5,3.41246)"
       id="g5826">
      <g
         transform="scale(0.893656,1.1189987)"
         style="font-style:normal;font-variant:normal;font-weight:bold;font-stretch:normal;font-size:34.10044098px;line-height:89.99999762%;font-family:Giulio;-inkscape-font-specification:'Giulio, Bold';text-align:center;letter-spacing:0px;word-spacing:0px;writing-mode:lr-tb;text-anchor:middle;display:inline;opacity:1;fill:#af0318;fill-opacity:1;stroke:none;stroke-width:1px;stroke-linecap:butt;stroke-linejoin:miter;stroke-opacity:1"
         id="text4891">
        <path
           d="m 47.066858,61.040588 0,-43.458081 8.991327,0 c 3.330121,0 5.827712,1.498554 7.492773,4.495663 l 2.997109,5.994219 2.997109,-5.994219 c 1.665061,-2.997109 4.162652,-4.495663 7.492773,-4.495663 l 8.991327,0 0,43.458081 -4.608758,0 0,-38.69326 -2.884015,0 c -1.998073,0 -3.496627,0.999036 -4.495663,2.997109 l -7.492773,16.4841 -7.492773,-16.4841 c -0.999036,-1.998073 -2.49759,-2.997109 -4.495663,-2.997109 l -2.576135,0 0,38.69326 z m 8.570353,0 0,-34.612971 c 0.999036,0 0.58748,0.333012 0.920492,0.999036 l 9.990364,21.479282 9.990363,-21.479282 c 0.333013,-0.666024 0.229337,-0.999036 1.228373,-0.999036 l 0,34.612971 -5.224518,0 0,-13.48699 -5.994218,13.48699 -5.994218,-13.48699 0,13.48699 z"
           style="font-style:normal;font-variant:normal;font-weight:normal;font-stretch:normal;font-size:51.15066147px;line-height:89.99999762%;font-family:NiseSega;-inkscape-font-specification:'NiseSega, Normal';text-align:center;letter-spacing:3.06000018px;writing-mode:lr-tb;text-anchor:middle;fill:#af0318;fill-opacity:1"
           id="path5038" />
        <path
           id="path5769"
           style="font-style:normal;font-variant:normal;font-weight:normal;font-stretch:normal;font-size:51.15066147px;line-height:89.99999762%;font-family:NiseSega;-inkscape-font-specification:'NiseSega, Normal';text-align:center;letter-spacing:3.06000018px;writing-mode:lr-tb;text-anchor:middle;fill:#af0318;fill-opacity:1"
           d="m 125.95133,31.818775 c 0,3.929543 -1.01569,6.910001 -3.04706,8.941375 -1.99807,1.998073 -3.69644,3.346772 -5.09509,4.046098 l 8.14215,16.23434 -4.87522,0 -11.02578,-19.824413 3.09429,0 c 1.83736,0 3.55843,-0.911263 5.20872,-2.733789 1.68467,-1.860495 2.52701,-4.081698 2.52701,-6.663611 0,-2.543942 -0.84234,-4.746162 -2.52701,-6.606656 -1.65029,-1.860495 -3.38653,-2.790744 -5.20872,-2.790744 l -21.660037,0 0,-4.838868 20.979757,0 c 3.43003,0 6.52704,1.398651 9.29104,4.195953 2.7973,2.797301 4.19595,6.144073 4.19595,10.040315 z m -8.95456,0 c 0,1.635239 -0.62994,3.036872 -1.8898,4.204899 -1.22837,1.138827 -2.48823,1.708241 -3.77958,1.708241 l -14.643322,0 0,23.308673 -5.199485,0 0,-27.723259 19.481197,0 c 1.0025,0 1.49856,-0.499518 1.49856,-1.498554 0,-0.999036 -0.49952,-1.498554 -1.49856,-1.498554 l -19.481197,0 0,-4.414586 19.842807,0 c 1.29135,0 2.55121,0.584014 3.77958,1.752041 1.25986,1.168028 1.8898,2.555061 1.8898,4.161099 z m 0.34279,29.221813 -4.87522,0 -7.49277,-14.985545 0,14.985545 -5.090899,0 0,-19.824413 6.311939,0 z" />
        <path
           d="m 138.17525,54.981027 0,6.059561 -10.48988,0 0,-6.059561 m 0,0.06534 0,-2.149816 10.48988,0 0,2.37323"
           style="font-style:normal;font-variant:normal;font-weight:normal;font-stretch:normal;font-size:51.15066147px;line-height:89.99999762%;font-family:NiseSega;-inkscape-font-specification:'NiseSega, Normal';text-align:center;letter-spacing:3.06000018px;writing-mode:lr-tb;text-anchor:middle;fill:#af0318;fill-opacity:1"
           id="path5042" />
        <path
           d="m 196.67436,31.818775 c 0,3.929543 -1.01569,6.910001 -3.04706,8.941375 -1.99807,1.998073 -3.69644,3.346772 -5.09509,4.046098 l 8.14215,16.23434 -4.87522,0 -11.02578,-19.824413 3.09429,0 c 1.83736,0 3.55843,-0.911263 5.20872,-2.733789 1.68467,-1.860495 2.52701,-4.081698 2.52701,-6.663611 0,-2.543942 -0.84234,-4.746162 -2.52701,-6.606656 -1.65029,-1.860495 -3.38653,-2.790744 -5.20872,-2.790744 l -21.66004,0 0,-4.838868 20.97976,0 c 3.43003,0 6.52704,1.398651 9.29104,4.195953 2.7973,2.797301 4.19595,6.144073 4.19595,10.040315 z m -8.95456,0 c 0,1.635239 -0.62994,3.036872 -1.8898,4.204899 -1.22837,1.138827 -2.48823,1.708241 -3.77958,1.708241 l -14.64333,0 0,23.308673 -5.19948,0 0,-27.723259 19.4812,0 c 1.0025,0 1.49856,-0.499518 1.49856,-1.498554 0,-0.999036 -0.49952,-1.498554 -1.49856,-1.498554 l -19.4812,0 0,-4.414586 19.84281,0 c 1.29135,0 2.55121,0.584014 3.77958,1.752041 1.25986,1.168028 1.8898,2.555061 1.8898,4.161099 z m 0.34279,29.221813 -4.87522,0 -7.49277,-14.985545 0,14.985545 -5.0909,0 0,-19.824413 6.31194,0 z"
           style="font-style:normal;font-variant:normal;font-weight:normal;font-stretch:normal;font-size:51.15066147px;line-height:89.99999762%;font-family:NiseSega;-inkscape-font-specification:'NiseSega, Normal';text-align:center;letter-spacing:3.06000018px;writing-mode:lr-tb;text-anchor:middle;fill:#af0318;fill-opacity:1"
           id="path5044" />
        <path
           d="m 235.69967,31.069498 0,16.4841 c 0,8.991327 -4.49566,13.48699 -13.48699,13.48699 l -5.99422,0 c -8.99133,0 -13.48699,-4.495663 -13.48699,-13.48699 l 0,-16.4841 c 0,-8.991327 4.49566,-13.486991 13.48699,-13.486991 l 5.99422,0 c 8.99133,0 13.48699,4.495664 13.48699,13.486991 z m -8.16487,0.616093 0,15.251914 c 0,3.697434 -1.84872,5.546151 -5.54615,5.546151 l -5.54616,0 c -3.69743,0 -5.54615,-1.848717 -5.54615,-5.546151 l 0,-15.251914 c 0,-3.697434 1.84872,-5.546151 5.54615,-5.546151 l 5.54616,0 c 3.69743,0 5.54615,1.848717 5.54615,5.546151 z m 3.14314,-1.380194 c 0,-5.458273 -2.72913,-8.187409 -8.18741,-8.187409 l -6.54992,0 c -5.45828,0 -8.18741,2.729136 -8.18741,8.187409 l 0,18.012302 c 0,5.458272 2.72913,8.187408 8.18741,8.187408 l 6.54992,0 c 5.45828,0 8.18741,-2.729136 8.18741,-8.187408 z m -8.46526,2.262655 c 0,-0.999036 -0.49952,-1.498554 -1.49856,-1.498554 l -2.9971,0 c -0.99904,0 -1.49856,0.499518 -1.49856,1.498554 l 0,13.486991 c 0,0.999037 0.49952,1.498555 1.49856,1.498555 l 2.9971,0 c 0.99904,0 1.49856,-0.499518 1.49856,-1.498555 z"
           style="font-style:normal;font-variant:normal;font-weight:normal;font-stretch:normal;font-size:51.15066147px;line-height:89.99999762%;font-family:NiseSega;-inkscape-font-specification:'NiseSega, Normal';text-align:center;letter-spacing:3.06000018px;writing-mode:lr-tb;text-anchor:middle;fill:#af0318;fill-opacity:1"
           id="path5046" />
        <path
           d="m 276.22352,31.818775 c 0,2.897205 -0.68267,5.411447 -2.04802,7.542724 1.36535,2.131278 2.04802,4.612218 2.04802,7.442821 0,3.896242 -1.39865,7.243014 -4.19595,10.040316 -2.764,2.797301 -5.86101,4.195952 -9.29104,4.195952 l -20.97976,0 0,-4.988282 22.32101,0 c 1.8778,0 3.66702,-0.868039 5.36768,-2.604118 1.73607,-1.736079 2.60412,-3.791029 2.60412,-6.164851 0,-3.259576 -1.5235,-5.899124 -4.57051,-7.918644 3.15329,-2.054951 4.6768,-4.729929 4.57051,-8.024935 0,-2.373822 -0.86805,-4.428772 -2.60412,-6.164851 -1.70066,-1.736079 -3.48988,-2.604118 -5.36768,-2.604118 l -22.32101,0 0,-4.988282 20.97976,0 c 3.43003,0 6.52704,1.398651 9.29104,4.195953 2.7973,2.797301 4.19595,6.144073 4.19595,10.040315 z m -34.46675,-1.498554 0,-4.375626 20.97976,0 c 1.36501,0 2.6974,0.580166 3.99615,1.740497 1.33205,1.160333 1.99807,2.538226 1.99807,4.133683 0,1.624465 -0.66602,3.016863 -1.99807,4.177194 -1.29875,1.131324 -2.6308,1.696986 -3.99615,1.696986 l -20.97976,0 0,-4.375626 m 5.00629,0 14.47492,0 c 0.99903,0 1.49855,-0.499518 1.49855,-1.498554 0,-0.999036 -0.49988,-1.498554 -1.49855,-1.498554 l -14.47492,0 z m -5.00629,11.988437 0,-4.723352 20.97976,0 c 1.36535,0 2.6974,0.614509 3.99615,1.843528 1.33205,1.198293 1.99807,2.657752 1.99807,4.378378 0,1.689901 -0.66602,3.14936 -1.99807,4.378379 -1.29875,1.229019 -2.6308,1.843528 -3.99615,1.843528 l -20.97976,0 0,-4.723352 m 5.00629,0 14.47492,0 c 0.99903,0 1.49855,-0.499518 1.49855,-1.498555 0,-0.999036 -0.49952,-1.498554 -1.49855,-1.498554 l -14.47492,0 z"
           style="font-style:normal;font-variant:normal;font-weight:normal;font-stretch:normal;font-size:51.15066147px;line-height:89.99999762%;font-family:NiseSega;-inkscape-font-specification:'NiseSega, Normal';text-align:center;letter-spacing:3.06000018px;writing-mode:lr-tb;text-anchor:middle;fill:#af0318;fill-opacity:1"
           id="path5048" />
        <path
           id="path5065"
           style="font-style:normal;font-variant:normal;font-weight:normal;font-stretch:normal;font-size:51.15066147px;line-height:89.99999762%;font-family:NiseSega;-inkscape-font-specification:'NiseSega, Normal';text-align:center;letter-spacing:3.06000018px;writing-mode:lr-tb;text-anchor:middle;fill:#af0318;fill-opacity:1"
           d="m 315.24883,31.069498 0,16.4841 c 0,8.991327 -4.49566,13.48699 -13.48699,13.48699 l -5.99422,0 c -8.99133,0 -13.48699,-4.495663 -13.48699,-13.48699 l 0,-16.4841 c 0,-8.991327 4.49566,-13.486991 13.48699,-13.486991 l 5.99422,0 c 8.99133,0 13.48699,4.495664 13.48699,13.486991 z m -8.16487,0.616093 0,15.251914 c 0,3.697434 -1.84872,5.546151 -5.54615,5.546151 l -5.54616,0 c -3.69743,0 -5.54615,-1.848717 -5.54615,-5.546151 l 0,-15.251914 c 0,-3.697434 1.84872,-5.546151 5.54615,-5.546151 l 5.54616,0 c 3.69743,0 5.54615,1.848717 5.54615,5.546151 z m 3.14314,-1.380194 c 0,-5.458273 -2.72913,-8.187409 -8.18741,-8.187409 l -6.54992,0 c -5.45828,0 -8.18741,2.729136 -8.18741,8.187409 l 0,18.012302 c 0,5.458272 2.72913,8.187408 8.18741,8.187408 l 6.54992,0 c 5.45828,0 8.18741,-2.729136 8.18741,-8.187408 z m -8.46526,2.262655 c 0,-0.999036 -0.49952,-1.498554 -1.49856,-1.498554 l -2.9971,0 c -0.99904,0 -1.49856,0.499518 -1.49856,1.498554 l 0,13.486991 c 0,0.999037 0.49952,1.498555 1.49856,1.498555 l 2.9971,0 c 0.99904,0 1.49856,-0.499518 1.49856,-1.498555 z" />
        <path
           d="m 321.30593,17.582507 0,4.843389 34.46676,0 0,-4.843389 z m 0,8.643602 0,4.843389 10.48988,0 0,29.97109 4.49566,0 0,-34.814479 z m 19.48122,34.814479 4.49566,0 0,-29.97109 10.48988,0 0,-4.843389 -14.98554,0 z"
           style="font-style:normal;font-variant:normal;font-weight:normal;font-stretch:normal;font-size:51.15066147px;line-height:89.99999762%;font-family:NiseSega;-inkscape-font-specification:'NiseSega, Normal';text-align:center;letter-spacing:3.06000018px;writing-mode:lr-tb;text-anchor:middle;fill:#af0318;fill-opacity:1"
           id="path5052" />
      </g>
      <path
         transform="scale(0.893656,1.1189987)"
         id="path5792"
         style="font-style:normal;font-variant:normal;font-weight:normal;font-stretch:normal;font-size:51.15066147px;line-height:89.99999762%;font-family:NiseSega;-inkscape-font-specification:'NiseSega, Normal';text-align:center;letter-spacing:3.06000018px;word-spacing:0px;writing-mode:lr-tb;text-anchor:middle;opacity:1;fill:#cccccc;fill-opacity:0.99607843;stroke:none;stroke-width:1px;stroke-linecap:butt;stroke-linejoin:miter;stroke-opacity:1"
         d="m 336.29147,61.040588 0,-34.814479 -14.98554,0 0,-3.800213 34.46676,0 0,3.800213 -14.98554,0 0,34.814479 z" />
      <path
         style="font-style:normal;font-variant:normal;font-weight:normal;font-stretch:normal;font-size:51.15066147px;line-height:89.99999762%;font-family:NiseSega;-inkscape-font-specification:'NiseSega, Normal';text-align:center;letter-spacing:3.06000018px;word-spacing:0px;writing-mode:lr-tb;text-anchor:middle;display:inline;opacity:1;fill:#cccccc;fill-opacity:0.99607843;stroke:none;stroke-width:1px;stroke-linecap:butt;stroke-linejoin:miter;stroke-opacity:1"
         d="m 264.06641,24.75 c -4.87783,0 -7.31641,3.05431 -7.31641,9.162109 l 0,20.15625 c 0,6.107799 2.43858,9.160157 7.31641,9.160157 l 5.85351,0 c 4.87783,0 7.31641,-3.052358 7.31641,-9.160157 l 0,-20.15625 c 0,-6.107799 -2.43858,-9.162109 -7.31641,-9.162109 l -5.85351,0 z m 0.44921,4.5 4.95508,0 c 3.30423,0 4.95703,2.069608 4.95703,6.207031 l 0,17.066407 c 0,4.137422 -1.6528,6.205078 -4.95703,6.205078 l -4.95508,0 c -3.30423,0 -4.95703,-2.067656 -4.95703,-6.205078 l 0,-17.066407 c 0,-4.137423 1.6528,-6.207031 4.95703,-6.207031 z"
         id="path5804" />
      <path
         style="font-style:normal;font-variant:normal;font-weight:normal;font-stretch:normal;font-size:51.15066147px;line-height:89.99999762%;font-family:NiseSega;-inkscape-font-specification:'NiseSega, Normal';text-align:center;letter-spacing:3.06000018px;word-spacing:0px;writing-mode:lr-tb;text-anchor:middle;display:inline;opacity:1;fill:#cccccc;fill-opacity:0.99607843;stroke:none;stroke-width:1px;stroke-linecap:butt;stroke-linejoin:miter;stroke-opacity:1"
         d="m 216.04688,25.255859 0,3.775391 18.75,0 c 1.21984,0 2.40967,0.65081 3.57031,1.949219 1.19039,1.298411 1.78515,2.839686 1.78515,4.625 0,1.817774 -0.59476,3.375419 -1.78515,4.673828 -1.16064,1.26595 -2.35017,1.898437 -3.57031,1.898437 l -18.75,0 0,3.234375 18.75,0 c 1.22015,0 2.40967,0.68723 3.57031,2.0625 1.19039,1.340889 1.78515,2.97306 1.78515,4.898438 0,1.890997 -0.59476,3.52512 -1.78515,4.900391 -1.16064,1.375269 -2.35017,2.0625 -3.57031,2.0625 l -18.75,0 0,3.386718 19.94726,0 c 1.67811,0 3.27707,-0.971392 4.79688,-2.914062 1.55144,-1.94267 2.32812,-4.242134 2.32812,-6.898438 0,-3.647461 -1.361,-6.601488 -4.08398,-8.861328 2.81795,-2.299487 4.17898,-5.293361 4.08398,-8.980469 0,-2.656301 -0.77668,-4.955767 -2.32812,-6.898437 -1.51981,-1.94267 -3.11877,-2.914063 -4.79688,-2.914063 l -19.94726,0 z"
         id="path5822" />
      <path
         style="font-style:normal;font-variant:normal;font-weight:normal;font-stretch:normal;font-size:51.15066147px;line-height:89.99999762%;font-family:NiseSega;-inkscape-font-specification:'NiseSega, Normal';text-align:center;letter-spacing:3.06000018px;word-spacing:0px;writing-mode:lr-tb;text-anchor:middle;display:inline;opacity:1;fill:#cccccc;fill-opacity:0.99607843;stroke:none;stroke-width:1px;stroke-linecap:butt;stroke-linejoin:miter;stroke-opacity:1"
         d="m 192.97656,24.75 c -4.87782,0 -7.3164,3.05431 -7.3164,9.162109 l 0,20.15625 c 0,6.107799 2.43858,9.160157 7.3164,9.160157 l 5.85352,0 c 4.87782,0 7.3164,-3.052358 7.3164,-9.160157 l 0,-20.15625 c 0,-6.107799 -2.43858,-9.162109 -7.3164,-9.162109 l -5.85352,0 z m 0.44922,4.5 4.95508,0 c 3.30423,0 4.95703,2.069608 4.95703,6.207031 l 0,17.066407 c 0,4.137422 -1.6528,6.205078 -4.95703,6.205078 l -4.95508,0 c -3.30423,0 -4.95703,-2.067656 -4.95703,-6.205078 l 0,-17.066407 c 0,-4.137423 1.6528,-6.207031 4.95703,-6.207031 z"
         id="path5834" />
      <path
         transform="scale(0.893656,1.1189987)"
         id="path5839"
         style="font-style:normal;font-variant:normal;font-weight:normal;font-stretch:normal;font-size:51.15066147px;line-height:89.99999762%;font-family:NiseSega;-inkscape-font-specification:'NiseSega, Normal';text-align:center;letter-spacing:3.06000018px;word-spacing:0px;writing-mode:lr-tb;text-anchor:middle;display:inline;opacity:1;fill:#cccccc;fill-opacity:0.99607843;stroke:none;stroke-width:1px;stroke-linecap:butt;stroke-linejoin:miter;stroke-opacity:1"
         d="m 170.6037,61.040588 0,-19.824413 6.31194,0 11.14695,19.824413 3.73655,0 -11.02578,-19.824413 3.09429,0 c 1.83736,0 3.55843,-0.911263 5.20872,-2.733789 1.68467,-1.860495 2.52701,-4.081698 2.52701,-6.663611 0,-2.543942 -0.84234,-4.746162 -2.52701,-6.606656 -1.65029,-1.860495 -3.38653,-2.790744 -5.20872,-2.790744 l -21.66004,0 0,3.48426 19.84281,0 c 1.29135,0 2.55121,0.584014 3.77958,1.752041 1.25986,1.168028 1.8898,2.555061 1.8898,4.161099 0,1.635239 -0.62994,3.036872 -1.8898,4.204899 -1.22837,1.138827 -2.48823,1.708241 -3.77958,1.708241 l -14.64333,0 0,23.308673 z m -8.39609,-27.723259 19.4812,0 c 1.0025,0 1.49856,-0.499518 1.49856,-1.498554 0,-0.999036 -0.49952,-1.498554 -1.49856,-1.498554 l -19.4812,0" />
      <path
         transform="scale(0.893656,1.1189987)"
         d="m 121.07611,61.040588 -11.02578,-19.824413 3.09429,0 c 1.83736,0 3.55843,-0.911263 5.20872,-2.733789 1.68467,-1.860495 2.52701,-4.081698 2.52701,-6.663611 0,-2.543942 -0.84234,-4.746162 -2.52701,-6.606656 -1.65029,-1.860495 -3.38653,-2.790744 -5.20872,-2.790744 l -21.660037,0 0,3.48426 19.842807,0 c 1.29135,0 2.55121,0.584014 3.77958,1.752041 1.25986,1.168028 1.8898,2.555061 1.8898,4.161099 0,1.635239 -0.62994,3.036872 -1.8898,4.204899 -1.22837,1.138827 -2.48823,1.708241 -3.77958,1.708241 l -14.643322,0 0,23.308673 3.196603,0 0,-19.824413 6.311939,0 11.14695,19.824413 z m -29.591527,-27.723259 19.481197,0 c 1.0025,0 1.49856,-0.499518 1.49856,-1.498554 0,-0.999036 -0.49952,-1.498554 -1.49856,-1.498554 l -19.481197,0"
         style="font-style:normal;font-variant:normal;font-weight:normal;font-stretch:normal;font-size:51.15066147px;line-height:89.99999762%;font-family:NiseSega;-inkscape-font-specification:'NiseSega, Normal';text-align:center;letter-spacing:3.06000018px;word-spacing:0px;writing-mode:lr-tb;text-anchor:middle;display:inline;opacity:1;fill:#cccccc;fill-opacity:0.99607843;stroke:none;stroke-width:1px;stroke-linecap:butt;stroke-linejoin:miter;stroke-opacity:1"
         id="path5895" />
      <path
         style="font-style:normal;font-variant:normal;font-weight:normal;font-stretch:normal;font-size:51.15066147px;line-height:89.99999762%;font-family:NiseSega;-inkscape-font-specification:'NiseSega, Normal';text-align:center;letter-spacing:3.06000018px;word-spacing:0px;writing-mode:lr-tb;text-anchor:middle;display:inline;opacity:1;fill:#cccccc;fill-opacity:0.99607843;stroke:none;stroke-width:1px;stroke-linecap:butt;stroke-linejoin:miter;stroke-opacity:1"
         d="m 46.455078,68.304688 0,-43.298829 2.302734,0 c 1.78559,0 3.124784,1.119628 4.017579,3.355469 l 6.695312,18.445313 6.697266,-18.445313 c 0.892794,-2.235841 2.231988,-3.355469 4.017578,-3.355469 l 2.576172,0 0,43.298829 -3.265625,0 0,-38.732422 c -0.892795,0 -0.800057,0.371907 -1.097656,1.117187 L 59.470703,54.726562 50.542969,30.689453 c -0.297598,-0.74528 0.07053,-1.117187 -0.822266,-1.117187 l 0,38.732422 z"
         id="path5904" />
    </g>
  </g>
  <g
     transform="translate(-18.000014,6.7500004)"
     style="display:inline"
     id="layer4">
    <g
       transform="matrix(0.35481493,0,0,0.34821584,50.388815,114.90828)"
       id="g4489">
      <g
         id="g5467"
         transform="translate(-97.507531,-208.03468)" />
      <path
         id="path5491"
         style="fill:none;fill-rule:evenodd;stroke:#000000;stroke-width:0;stroke-linecap:butt;stroke-linejoin:miter;stroke-miterlimit:4;stroke-dasharray:none;stroke-opacity:1"
         d="m 452.47204,370.01551 -0.13098,-0.26196 -0.91685,-2.09566 -0.6549,-7.9897 -10.74025,0.13098 0.91685,6.81089 0.78587,1.8337 0.91685,3.01251 m 255.6462,-181.55371 c -1.12392,-2.16711 -2.19051,-4.991 -1.20402,-7.22403 0.48273,-1.0927 1.83029,-2.13262 3.01003,-1.94494 1.04042,0.16551 1.60832,1.47288 1.99126,2.45432 0.53969,1.38319 0.42497,2.96813 0.27784,4.44557 -0.17026,1.70968 -1.12834,4.28278 -1.32977,4.97992 -0.16149,0.55891 -2.15325,-1.56918 -2.74534,-2.71084 z m -404.2689,220.75861 c -2.53616,-1.0146 -2.6705,-1.44221 -1.25,-3.97881 0.87535,-1.56313 2.29838,-3.29395 3.1623,-3.84628 1.1487,-0.7344 1.22085,-1.65806 0.26853,-3.4375 -1.13117,-2.1136 -0.88593,-2.43326 1.86673,-2.43326 1.98354,0 3.16898,-0.7014 3.16898,-1.875 0,-1.03125 -0.98438,-1.8771 -2.1875,-1.87968 -1.20313,-0.002 -4.02923,-1.12756 -6.28021,-2.5 -2.25099,-1.37242 -6.08485,-2.49532 -8.51968,-2.49532 -5.22603,0 -9.26261,-1.88905 -9.26261,-4.33475 0,-2.3313 -4.34523,-3.60364 -7.16083,-2.09677 -1.55943,0.83458 -3.21308,0.67678 -5.35972,-0.51145 -1.70745,-0.94514 -4.3045,-1.73838 -5.77123,-1.76273 -3.37101,-0.056 -4.85248,-5.96769 -2.22852,-8.89273 2.34059,-2.60914 2.27581,-4.37722 -0.0885,-2.41504 -3.00094,2.49055 -7.63658,0.47668 -9.90463,-4.30288 -1.90423,-4.01289 -2.31988,-4.24709 -5.46136,-3.07724 -7.92194,2.95003 -10.16047,4.31968 -10.75105,6.57804 -0.42031,1.60731 -1.29715,2.13235 -2.67686,1.6029 -1.12846,-0.43304 -3.13076,-0.78735 -4.44954,-0.78735 -1.31876,0 -2.39776,-0.5625 -2.39776,-1.25 0,-0.6875 1.6875,-1.25 3.75,-1.25 2.0625,0 3.75,-0.61629 3.75,-1.36954 0,-2.63801 5.19219,-8.63046 7.4779,-8.63046 2.90567,0 10.0221,-11.26024 10.0221,-15.85785 0,-1.82616 -0.91197,-4.32801 -2.0266,-5.55966 -2.40809,-2.6609 -1.34693,-6.68516 1.47706,-5.6015 1.1041,0.42368 1.60271,0.21181 1.16569,-0.4953 -0.86156,-1.39405 2.30216,-1.59155 6.68737,-0.41749 2.37628,0.6362 2.83094,1.44896 2.41103,4.30998 -0.31885,2.17246 0.1165,3.76916 1.13397,4.15963 0.90832,0.34855 1.65148,1.49513 1.65148,2.54796 0,1.29359 1.21584,1.91423 3.75,1.91423 2.0625,0 3.75,-0.4969 3.75,-1.10421 0,-2.16076 5.51287,-2.56911 7.71985,-0.57183 1.20287,1.08858 3.00712,1.66455 4.00945,1.27992 2.81205,-1.07909 8.24391,4.60356 7.41827,7.76078 -0.45046,1.72258 -0.0975,2.64911 1.01914,2.67509 1.34196,0.0312 1.29968,0.3663 -0.1972,1.5625 -1.04802,0.83751 -3.07926,3.16489 -4.51386,5.17194 -1.88915,2.643 -4.98273,4.41747 -11.2195,6.43554 -5.32291,1.72235 -8.76516,3.54913 -9.01446,4.78392 -0.28855,1.42915 0.20147,1.76551 1.72201,1.18201 1.81317,-0.69577 2.04697,-0.14434 1.59181,3.75439 -0.29342,2.51348 -0.084,4.56995 0.46549,4.56995 0.54945,0 0.999,-0.5625 0.999,-1.25 0,-0.6875 1.13892,-1.25 2.53094,-1.25 1.5495,0 2.99166,-1.2118 3.71906,-3.125 0.65346,-1.71875 1.76455,-3.125 2.46906,-3.125 0.70452,0 1.28094,-0.84375 1.28094,-1.875 0,-1.03125 0.8614,-1.875 1.91422,-1.875 1.05284,0 2.25246,-0.88138 2.66583,-1.95861 0.51364,-1.33852 2.18316,-1.8938 5.27327,-1.75389 2.48693,0.11262 4.80293,0.104 5.14668,-0.0191 0.34375,-0.12312 2.2431,-0.48767 4.22077,-0.81007 2.74913,-0.44815 3.43435,-0.16549 2.91019,1.20047 -0.37707,0.98265 -0.1717,2.30054 0.4564,2.92864 1.64573,1.64573 -1.42641,9.02243 -4.11259,9.87499 -1.32981,0.42207 -2.22477,1.92934 -2.22477,3.74689 0,2.44876 0.63882,3.04076 3.28125,3.04076 2.97435,0 3.21156,0.34844 2.53617,3.72537 -0.57391,2.86958 -0.19795,4.0182 1.63658,5 3.76322,2.01403 6.296,1.52108 6.296,-1.22537 0,-1.375 0.49132,-2.5 1.09183,-2.5 0.60051,0 1.17513,-4.05243 1.27695,-9.00538 0.1035,-5.03326 0.79521,-9.38245 1.56831,-9.86025 0.76076,-0.47017 0.99669,-1.48025 0.52429,-2.24462 -0.52398,-0.84779 0.14476,-1.38975 1.71485,-1.38975 1.41557,0 2.57377,0.5625 2.57377,1.25 0,0.6875 1.37305,1.25 3.05123,1.25 1.67817,0 3.35678,0.4944 3.73024,1.09867 0.37347,0.60428 3.07854,0.84365 6.01128,0.53194 4.59041,-0.4879 5.88439,-0.0538 9.30091,3.12015 3.08515,2.8661 3.64171,4.03474 2.5,5.24933 -1.12707,1.19902 -1.10565,1.69552 0.0921,2.13476 1.20343,0.44131 1.14003,1.17311 -0.2769,3.19606 -1.35269,1.93124 -1.4768,3.05859 -0.47027,4.2714 2.12709,2.56299 4.79139,1.94251 5.00174,-1.16481 0.10475,-1.54688 0.25383,-3.43939 0.33135,-4.20558 0.21974,-2.17191 3.35604,-5.48192 5.1942,-5.48192 0.91291,0 2.10966,-0.77008 2.65945,-1.71129 1.17535,-2.01216 17.3045,-6.28861 19.22996,-5.0986 2.5442,1.5724 3.38597,6.09646 1.60957,8.65053 -0.9432,1.35608 -1.71492,3.40528 -1.71492,4.55376 0,1.14847 -0.84375,2.4119 -1.875,2.80764 -2.72106,1.04416 -2.30513,4.54796 0.53989,4.54796 2.85354,0 7.06125,-5.65205 7.2863,-9.78738 0.0871,-1.60181 0.87485,-3.77555 1.7504,-4.83052 0.87555,-1.05498 1.61025,-3.24194 1.63266,-4.85991 0.0224,-1.61798 1.02513,-4.09129 2.22825,-5.49627 1.20313,-1.40497 2.1875,-3.08262 2.1875,-3.7281 0,-0.64547 -0.98437,-1.74695 -2.1875,-2.4477 -1.81196,-1.05537 -1.49007,-1.28062 1.875,-1.31211 2.63957,-0.0247 4.0625,-0.65376 4.0625,-1.79599 0,-1.10642 0.87274,-1.52975 2.35479,-1.14218 1.46846,0.38401 2.14654,1.41207 1.80154,2.73137 -0.8427,3.22249 9.96236,14.1686 12.91307,13.08164 1.26808,-0.46713 2.75543,-1.59486 3.30522,-2.50609 1.38468,-2.29499 3.37538,-2.07601 3.37538,0.37129 0,1.63712 0.35212,1.73584 1.82663,0.5121 1.41129,-1.17128 2.83239,-1.18403 6.25,-0.0561 5.16572,1.70484 5.60282,3.28217 1.4357,5.18084 -3.32868,1.51664 -6.46615,6.43504 -5.30424,8.31505 0.41413,0.67008 1.8875,1.515 3.27416,1.87761 1.38667,0.36263 2.20598,0.14928 1.8207,-0.47411 -0.38524,-0.62342 0.13887,-1.13346 1.1647,-1.13346 1.27494,0 1.83042,1.22257 1.75533,3.86346 -0.12275,4.31528 -0.23152,4.37824 -9.43206,5.45664 -5.60364,0.65681 -6.70897,0.43915 -7.42254,-1.46167 -0.46113,-1.22839 -1.71703,-2.90229 -2.79089,-3.7198 -1.582,-1.20434 -1.66911,-1.95094 -0.45912,-3.93479 1.28508,-2.10699 1.11076,-2.55103 -1.25,-3.18406 -4.23092,-1.13454 -7.3488,-0.90395 -6.49334,0.48022 0.98646,1.59613 -3.15517,1.59613 -5.625,0 -1.03125,-0.66645 -1.2703,-1.22034 -0.53121,-1.23086 0.73907,-0.01 1.30157,-1.98624 1.25,-4.39046 -0.056,-2.61158 -0.7228,-4.3728 -1.65629,-4.375 -0.85938,-0.003 -1.5625,0.7932 -1.5625,1.76716 0,0.97395 -0.69034,2.00094 -1.53409,2.28219 -0.88935,0.29645 -1.5341,2.73082 -1.5341,5.79232 0,5.86505 1.99888,7.97066 6.4953,6.84213 2.1919,-0.55013 2.82289,-0.17527 2.82289,1.67701 0,4.16827 -2.63195,5.38551 -11.64474,5.38551 -4.7784,0 -11.23552,0.90978 -14.4375,2.03418 -5.47022,1.92091 -6.24516,1.89797 -13.91776,-0.41177 -6.09508,-1.83483 -8.07908,-2.98295 -7.94117,-4.59543 0.25451,-2.97609 -2.41467,-1.86114 -3.93383,1.64321 -1.21803,2.80969 -1.56719,2.86459 -13.64804,2.1461 -6.81891,-0.40555 -12.97829,-1.31761 -13.6875,-2.02683 -2.09202,-2.09211 -5.78943,-1.51104 -5.78943,0.90979 0,1.20963 -1.15538,2.92087 -2.5675,3.80275 -1.76325,1.10118 -2.32419,2.37 -1.79076,4.05068 0.4272,1.346 0.29265,2.44726 -0.29902,2.44726 -0.59164,0 -1.61393,1.79116 -2.27172,3.98036 -1.35071,4.49528 -2.47445,5.09096 -6.53754,3.46549 z m 65.96654,-18.69585 c 0,-0.6875 -0.24805,-1.25 -0.55123,-1.25 -0.30317,0 -0.89887,0.5625 -1.32377,1.25 -0.4249,0.6875 -0.17685,1.25 0.55123,1.25 0.72807,0 1.32377,-0.5625 1.32377,-1.25 z m -4.72909,-5.56421 c 1.18025,-1.40844 2.16463,-3.26392 2.1875,-4.12329 0.0739,-2.77465 -3.73416,-1.65753 -4.91225,1.44107 -0.62807,1.65197 -1.73915,3.37267 -2.46906,3.82378 -0.7299,0.4511 -1.3271,1.33184 -1.3271,1.95719 0,1.73408 4.10619,-0.21718 6.52091,-3.09875 z m -29.57685,-4.5121 c 1.99538,-2.20487 2.06836,-2.74278 0.50624,-3.73087 -2.66948,-1.6885 -3.46079,-1.47601 -4.96413,1.33302 -2.56726,4.79696 0.69749,6.55304 4.45789,2.39785 z m -43.19406,-1.17369 c 0,-0.6875 -0.5625,-1.25 -1.25,-1.25 -0.6875,0 -1.25,0.5625 -1.25,1.25 0,0.6875 0.5625,1.25 1.25,1.25 0.6875,0 1.25,-0.5625 1.25,-1.25 z M 389.28652,364.5963 c 0.38038,-0.61545 -0.13091,-1.43464 -1.1362,-1.82041 -1.95334,-0.74957 -3.62155,0.80907 -2.29054,2.14008 1.13002,1.13001 2.61649,0.99135 3.42674,-0.31967 z m -121.55351,-7.15464 c 0.5552,-0.34314 1.00946,-1.49462 1.00946,-2.55885 0,-1.22758 0.70276,-1.66529 1.92231,-1.1973 2.94634,1.13061 3.91002,-3.02012 1.16688,-5.02595 -3.3844,-2.47474 -10.2678,-2.07284 -16.54527,0.96603 -6.11109,2.95833 -7.58982,5.19834 -5.27383,7.98893 1.19515,1.44008 3.28436,1.70532 9.13037,1.1592 4.16933,-0.3895 8.03487,-0.98893 8.59008,-1.33206 z M 450.85898,383.59 c -2.674,-0.69302 -5.49755,-6.956 -3.4445,-7.64036 2.58471,-0.86156 1.28259,-2.73432 -1.90117,-2.73432 -2.02652,0 -3.03609,-0.58192 -2.71072,-1.5625 0.66667,-2.00915 12.18988,-2.57471 12.18988,-0.59829 0,1.04253 0.37058,1.04022 1.41964,-0.009 1.05952,-1.05952 0.88275,-1.95655 -0.69689,-3.53617 -1.16409,-1.1641 -1.80292,-2.93376 -1.41964,-3.9326 0.38329,-0.99883 0.69689,-2.68268 0.69689,-3.74188 0,-1.54182 0.3619,-1.62547 1.81501,-0.4195 0.99826,0.82849 2.96701,1.1407 4.375,0.69383 1.48855,-0.47245 2.55999,-0.25409 2.55999,0.52172 0,0.73384 -0.84375,1.33424 -1.875,1.33424 -1.04166,0 -1.875,1.11111 -1.875,2.5 0,1.375 0.5625,2.5 1.25,2.5 0.6875,0 1.25,-0.6004 1.25,-1.33424 0,-0.76338 1.06482,-0.99627 2.48881,-0.54431 3.7153,1.17919 5.55386,-0.44851 3.31303,-2.93305 -1.4546,-1.61279 -1.54063,-2.48977 -0.39393,-4.01586 2.73625,-3.64153 10.23204,-5.73495 12.82609,-3.58208 2.42008,2.00849 4.32932,0.29852 3.16897,-2.83822 -0.70918,-1.91711 -0.30786,-3.34735 1.4257,-5.08091 2.38364,-2.38364 2.36329,-2.454 -1.68766,-5.83589 l -4.1004,-3.42316 4.13923,-2.06492 c 4.83846,-2.41375 10.62535,-1.59715 9.49815,1.3403 -0.84622,2.2052 1.39172,5.31234 3.82625,5.31234 0.93397,0 2.03707,-1.54687 2.45135,-3.4375 0.41427,-1.89062 0.9291,-4.03449 1.14407,-4.76415 0.21921,-0.74402 2.33064,-1.10019 4.80783,-0.81099 3.01712,0.35224 4.21597,1.03942 3.78278,2.16829 -0.3488,0.90894 0.53445,2.27805 1.96278,3.04246 1.42832,0.76442 2.59695,2.01118 2.59695,2.77057 0,0.7594 0.98349,2.09986 2.18554,2.97882 1.20203,0.87895 1.73396,2.04968 1.18202,2.6016 -0.55192,0.55193 -1.4651,0.25661 -2.02927,-0.65625 -0.74884,-1.21164 -1.26578,-1.27145 -1.91465,-0.22155 -0.48888,0.79101 -0.16389,2.31176 0.7222,3.37943 1.33828,1.61252 1.25067,2.1429 -0.51739,3.13236 -2.30236,1.28846 -2.83533,4.2325 -0.97441,5.3826 0.63472,0.39229 5.47877,-0.79259 7.86358,-2.19967 4.15888,-2.4538 1.89559,-5.87224 1.93184,-8.91154 0.0278,-2.33084 -0.92052,-4.57082 -1.31813,-6.86766 -0.4145,-2.39436 -0.67888,-4.81355 -1.11246,-7.20452 -0.21216,-1.16993 -0.4959,-2.3258 -0.72817,-3.4919 -0.43761,-2.19696 -0.83919,-4.40095 -1.25364,-6.6024 -0.41479,-2.20328 -1.02481,-4.37958 -1.23407,-6.61178 -0.10643,-1.13528 -1.20932,-2.42121 -0.008,-3.42077 1.12148,-0.93335 6.95039,-2.8544 8.34619,-3.27936 0,0 0.28472,4.24399 0.47936,6.36162 0.0996,1.08381 0.18295,2.17095 0.35229,3.24607 0.16431,1.04315 0.40726,2.07274 0.64289,3.10213 0.30458,1.33061 0.69351,2.64102 0.99605,3.9721 0.47046,2.06988 0.65346,4.20925 1.27314,6.23946 0.41143,1.34791 1.61217,3.90848 1.61217,3.90848 1.35431,3.64745 1.94039,-4.79014 4.06204,-5.86341 2.34199,-1.18473 5.69721,-1.24867 7.87064,0.22262 1.84264,1.24737 1.79792,4.07129 2.65418,6.12508 0.7218,1.73128 0.31743,4.61869 2.09299,5.22342 2.15648,0.73447 5.37016,-2.73599 5.88578,-3.47364 0.63067,-0.90222 2.21515,1.43938 2.3536,2.94183 0.78508,8.51936 -4.57685,10.53598 -9.45582,11.76905 -5.83266,1.4741 -11.28861,-7.83256 -12.60242,-4.73818 -1.29837,3.05804 1.2782,4.13344 0.21472,8.44963 -1.04039,4.22251 -3.58921,7.32274 -11.2825,8.75166 -3.76599,0.69948 -8.06044,0.99412 -9.41425,1.71865 -1.35381,0.72454 -3.64324,1.31734 -5.08763,1.31734 -1.44438,0 -3.87198,0.79991 -5.39467,1.77759 -3.32641,2.1358 -13.51579,3.68415 -15.26853,2.32016 -0.6875,-0.53501 -1.85268,-2.06427 -2.5893,-3.39835 -1.7268,-3.12753 -4.28567,-3.98049 -4.28567,-1.42866 0,1.08853 -0.5625,1.97916 -1.25,1.97916 -0.6875,0 -1.25,0.72784 -1.25,1.61743 0,0.88958 -2.26336,3.76218 -5.02969,6.38355 -4.46118,4.22741 -5.52267,4.67362 -9.39132,3.94786 -3.31609,-0.6221 -4.5396,-0.35446 -5.10405,1.11646 -0.73288,1.90985 -2.69726,2.2026 -7.10843,1.05938 z m 49.53528,-19.43718 c 0.81026,-0.85938 1.47321,-3.25 1.47321,-5.3125 0,-4.93506 -4.07867,-5.64231 -7.23745,-1.25498 -1.7436,2.42177 -1.94081,3.66193 -0.89351,5.61883 1.52273,2.84528 4.47313,3.26566 6.65775,0.94865 z m -3.62735,-14.25119 c 0.92277,-2.4047 -3.60555,-7.24725 -5.61543,-6.00509 -0.81755,0.50529 -0.45968,1.49682 0.95369,2.6423 1.63231,1.32294 1.82719,2.01472 0.6998,2.48417 -2.39006,0.99525 -1.85817,2.94231 0.80376,2.94231 1.30145,0 2.72263,-0.92866 3.15818,-2.06369 z m -310.01664,1.87407 c -1.286,-2.08081 3.13343,-4.85838 7.23316,-4.54599 3.97932,0.30321 3.97013,0.28842 2.21506,3.56778 -1.44293,2.69615 -7.9689,3.3718 -9.44822,0.97821 z M 85.885339,286.99232 c -1.59425,-0.16316 -3.16829,-0.63134 -4.63505,-1.277 -1.18638,-0.52224 -2.30601,-1.22782 -3.29369,-2.06729 -0.8468,-0.71972 -1.56117,-1.59498 -2.20437,-2.50126 -0.67802,-0.95534 -3.5657,-2.45294 -1.72194,-3.0637 0,0 7.05996,-2.41232 8.35355,-2.72135 0,0 2.46109,2.78618 4.14987,3.32382 1.08102,0.34415 2.37122,0.28311 3.39755,-0.20031 1.08705,-0.51203 2.22226,-1.46056 2.45531,-2.63935 0.25501,-1.28981 -0.45509,-2.76399 -1.38545,-3.69301 -1.66483,-1.66243 -4.26081,-2.38504 -6.61202,-2.46964 -2.54112,-0.0914 -4.91431,1.32342 -7.31946,2.14861 -5.68716,1.95122 -11.14926,4.50911 -16.781,6.61493 -4.05933,1.51787 -11.28933,5.85087 -12.25653,4.33778 -0.90131,-1.41001 -3.44166,-4.05745 -4.04136,-5.28433 0,0 3.03746,-1.64426 4.60073,-2.37585 1.9122,-0.89488 3.93266,-1.54727 5.83684,-2.45908 1.87771,-0.89913 3.63534,-2.03316 5.49766,-2.96374 1.85585,-0.92734 3.75813,-1.75911 5.65117,-2.60794 1.05006,-0.47085 2.10795,-0.92409 3.16532,-1.37829 1.74081,-0.74777 3.52493,-1.39857 5.23347,-2.21739 0.97332,-0.46647 1.89206,-1.03978 2.8523,-1.53261 2.45908,-1.26209 5.05174,-2.26763 7.44739,-3.64632 1.22241,-0.7035 3.51794,-2.35097 3.51794,-2.35097 0.87891,1.77563 3.80427,6.91265 4.42528,7.87694 0,0 -1.73273,0.27161 -3.66081,1.4786 -1.92807,1.20699 4.14656,1.37323 6.12146,2.2942 1.0254,0.47818 2.1322,0.89309 2.95544,1.66922 0.92431,0.87142 1.4787,2.07594 2.06623,3.20224 0.438291,0.84021 0.972401,1.68914 1.077171,2.63098 0.0739,0.6639 -0.20108,1.32129 -0.33315,1.97609 -0.17128,0.84921 -0.23607,1.74148 -0.595101,2.52989 -0.38596,0.84754 -1.03369,1.5539 -1.63154,2.26794 -0.87663,1.04701 -1.7369,2.15319 -2.85325,2.93962 -1.18387,0.83399 -2.54957,1.44702 -3.95411,1.79966 -1.79027,0.44949 -3.68961,0.54684 -5.52585,0.35891 z m 5.62433,1.90712 c 0,0 1.61753,2.03352 2.79377,2.31362 4.38989,1.04534 9.074431,-1.17874 13.199341,-3.00878 1.98579,-0.881 3.53136,-2.53271 5.33815,-3.73896 1.8781,-1.25385 5.71694,-3.6347 5.71694,-3.6347 0.90863,0.59231 3.98722,3.76907 4.59955,4.76431 0,0 -5.12519,2.13299 -7.3497,3.75056 -2.7225,1.97968 -8.52132,4.07263 -7.1394,7.14206 1.45652,3.23511 7.53096,1.09428 10.62414,-0.64343 3.3728,-1.8948 8.94442,-6.69524 9.78137,-6.02104 1.50273,1.21049 4.19654,2.7794 4.66864,3.1113 0,0 -3.76609,3.01353 -5.77104,4.34829 -1.70716,1.13651 -3.55029,2.05444 -5.31164,3.10501 -1.93902,1.15655 -4.65296,3.20038 -5.78625,3.5208 -0.58194,0.16453 0.57289,3.16954 1.82979,3.79803 1.06185,0.53096 3.49445,-0.68832 3.49445,-0.68832 -1.15938,-2.61019 4.09791,-3.99033 6.31345,-5.79272 1.45036,-1.1799 2.91677,-2.37153 4.55379,-3.27478 1.80467,-0.99576 5.30009,-1.62478 5.73096,-2.32197 1.01165,-1.63686 14.62055,-2.70205 15.53883,-1.21625 0.83442,1.35012 -4.64588,7.55285 -6.67318,7.55285 -0.78053,0 -1.41916,0.84375 -1.41916,1.875 0,1.03125 0.84375,1.875 1.875,1.875 5.35071,0 -2.49537,4.93952 -12.8125,8.06614 -3.35997,1.01823 -3.65507,2.94617 -0.625,4.08312 1.20313,0.45145 2.84518,1.69928 3.649,2.77295 1.20306,1.60694 2.12463,1.70183 5.21165,0.5366 3.14845,-1.1884 4.56554,-1.00144 8.83193,1.16524 2.79497,1.41942 5.45176,2.21079 5.90397,1.75857 1.49998,-1.49997 -2.28745,-4.63231 -5.6246,-4.65176 -3.75937,-0.0219 -7.2329,-1.8244 -5.53634,-2.87292 0.627,-0.38752 2.93875,-0.65343 5.13722,-0.59093 2.19844,0.0625 5.02761,-0.81886 6.28702,-1.95861 1.88715,-1.70785 2.98556,-1.82973 6.24624,-0.69305 2.17602,0.75856 3.95641,2.16794 3.95641,3.13194 0,0.96398 0.84375,1.75271 1.875,1.75271 1.03125,0 1.875,0.79687 1.875,1.77084 0,0.97395 0.70313,2.01677 1.5625,2.31737 1.13581,0.39729 0.9429,1.24523 -0.70642,3.10507 -3.25322,3.66844 -0.78265,4.39831 5.16353,1.52542 2.81029,-1.35779 5.6993,-2.4687 6.42,-2.4687 0.72071,0 1.31039,-0.50232 1.31039,-1.11626 0,-0.61395 0.80305,-1.42443 1.78456,-1.80106 1.39034,-0.53353 1.69065,0.34136 1.35939,3.96026 l -0.42517,4.64506 7.70311,1.85995 c 5.99606,1.44777 7.70311,2.37311 7.70311,4.17561 0,1.79209 -1.12638,2.41675 -4.98152,2.76268 -2.96231,0.26582 -7.15722,1.98057 -10.34905,4.23039 -5.34719,3.76905 -7.72258,4.62755 -7.87423,2.84587 -0.0439,-0.51563 -0.25735,-2.73539 -0.47437,-4.9328 -0.32359,-3.2765 0.0844,-4.06361 2.26729,-4.375 4.05073,-0.57781 2.93357,-2.78418 -1.84357,-3.64102 -2.3345,-0.41873 -5.81361,-1.18839 -7.73135,-1.71038 -1.91773,-0.52199 -3.33789,-0.46064 -3.15589,0.13631 0.6725,2.20583 -6.16402,7.96039 -9.45709,7.96039 -3.60273,0 -14.94712,-5.86355 -22.2051,-11.47711 -2.50518,-1.93759 -5.4241,-3.52289 -6.48647,-3.52289 -1.06239,0 -12.06104,-6.69867 -8.48317,-10.80015 1.0208,-1.17019 -6.28431,-0.11176 -8.40894,-2.06538 -1.57119,-1.44473 -3.33922,-3.59494 -2.0426,-6.06885 0.37454,-0.7146 -6.10169,0.65627 -8.7204,-0.62236 -2.1176,-1.03396 -3.78359,-3.09447 -4.733491,-5.25109 -0.65474,-1.48647 1.084611,-5.17824 -0.46796,-4.85031 -1.67707,0.35422 -4.07872,0.82128 -5.96498,0.18927 -2.18577,-0.73235 -5.38467,-4.33943 -5.38467,-4.33943 1.37135,-0.59842 3.63976,-1.75758 3.63976,-1.75758 z m 100.982801,46.26465 c 0,-0.30317 -0.5625,-0.89887 -1.25,-1.32377 -0.6875,-0.4249 -1.25,-0.17685 -1.25,0.55123 0,0.72807 0.5625,1.32377 1.25,1.32377 0.6875,0 1.25,-0.24805 1.25,-0.55123 z m -28.125,-3.19877 c 0.4249,-0.6875 0.17685,-1.25 -0.55123,-1.25 -0.72807,0 -1.32377,0.5625 -1.32377,1.25 0,0.6875 0.24805,1.25 0.55122,1.25 0.30318,0 0.89888,-0.5625 1.32378,-1.25 z m 1.25,-13.75 c -0.4249,-0.6875 -1.33504,-1.25 -2.02254,-1.25 -0.6875,0 -0.90236,0.5625 -0.47746,1.25 0.4249,0.6875 1.33504,1.25 2.02254,1.25 0.6875,0 0.90236,-0.5625 0.47746,-1.25 z m 421.94179,-6.98485 c 0.82675,-1.42265 1.94145,-3.81376 4.7247,-1.42978 2.97237,2.54598 4.41394,5.70067 5.46277,4.40504 1.37056,-1.69307 1.92211,-3.66862 3.05904,-3.28696 1.60001,0.47428 3.53241,6.32469 3.53241,6.32469 0.48502,0.80453 -2.43276,4.50718 -4.6528,4.9357 -1.91495,0.36963 -4.26838,-1.1615 -5.3096,-2.45788 -0.6086,-0.75774 -0.80393,5.52778 -2.85916,6.97168 -4.50826,3.16727 -12.0079,3.88605 -16.51341,0.71487 -2.42324,-1.70559 -2.47875,-5.53122 -2.63504,-8.4904 -0.0787,-1.49096 0.35117,-2.99376 0.86966,-4.39388 0.54437,-1.47001 1.4158,-2.80898 2.3118,-4.09524 0.52821,-0.75828 1.15977,-1.44136 1.79226,-2.11511 0.44342,-0.47235 0.94596,-0.88601 1.40058,-1.34759 0.42851,-0.43507 0.86351,-0.8665 1.25,-1.33929 0.87607,-1.07169 1.76765,-2.38036 2.4117,-3.38052 0.67249,-1.04432 1.86164,-2.51262 2.09489,-3.20193 0.27634,-0.8166 1.51632,-0.28376 4.59774,0.66331 l 4.72933,1.45355 -5.29701,5.39727 c -4.2604,4.34103 -4.98796,5.70405 -3.71778,6.96493 0,0 1.43296,1.48833 1.7423,2.43812 0.441,1.35399 0.74973,3.03753 0.0396,4.27182 -0.73144,1.2713 -2.38115,1.91431 -3.82429,2.17615 -0.92218,0.16703 -2.18722,-0.4437 -2.77648,-0.4437 -0.6875,0 -1.25,0.5625 -1.25,1.25 0,0.6875 0.5625,1.25 1.25,1.25 0.6875,0 1.39721,0.30212 2.10136,0.25626 1.13835,-0.0742 2.27692,-0.37773 3.31467,-0.85144 1.22204,-0.55784 2.75798,-0.90334 3.31466,-2.2922 0.47101,-1.1751 0.42127,-2.34165 0.43314,-3.34004 0.0338,-2.84112 -2.80076,-4.93609 -1.59704,-7.00743 z m 43.44701,-51.79394 c -1.04664,0.0394 0.8091,-5.12717 0.29429,-7.61453 -0.30837,-1.48991 -0.55192,-3.57083 -1.97224,-4.11638 -1.44228,-0.55399 -3.13586,0.73293 -4.28606,1.76449 -1.49564,1.34136 -2.26185,3.38174 -2.88525,5.2916 -0.74526,2.28316 -1.3978,4.78357 -0.94711,7.14262 0.22306,1.16755 0.94037,2.23279 1.73889,3.11329 0.81459,0.89821 1.85009,1.65595 2.98802,2.07482 1.20724,0.44439 2.55553,0.32021 3.8406,0.37943 1.90583,0.0878 3.81637,-0.0911 5.72344,-0.0365 2.0748,0.0594 4.2301,-0.21301 6.21435,0.39617 1.87954,0.57704 3.84187,1.46749 5.08292,2.99243 0.67324,0.82724 0.81622,1.98456 1.02936,3.02962 0.51044,2.50276 0.85898,10.24322 -0.90878,12.08697 -4.67054,4.87128 -7.82467,4.35924 -11.82154,8.15585 -2.22757,2.11596 -3.03146,7.43136 -3.98626,7.45283 -0.76967,0.0173 -6.55955,-6.7637 -6.94272,-7.51524 0,0 2.60412,-1.57798 3.86472,-2.43053 1.79155,-1.21163 3.47955,-2.5705 5.25086,-3.81153 1.41638,-0.99236 3.10182,-1.65686 4.29837,-2.90553 1.12735,-1.17646 2.23735,-2.56612 2.56244,-4.16277 0.39116,-1.92116 0.57442,-4.5001 -0.87928,-5.81563 -2.02269,-1.83042 -5.46015,-0.12983 -8.17349,-0.4118 -2.36068,-0.24532 -4.77964,-0.36598 -7.03288,-1.11158 -1.54027,-0.50968 -2.93737,-1.39587 -4.31188,-2.2578 -1.16912,-0.73314 -2.45905,-1.39147 -3.32599,-2.46513 -1.48447,-1.83844 -2.65631,-4.10908 -2.92664,-6.45651 -0.41394,-3.59457 0.84817,-7.25796 2.11693,-10.64654 1.08704,-2.90322 2.4776,-5.83204 4.62311,-8.0697 1.68842,-1.76094 3.81837,-3.3382 6.19197,-3.90186 2.23659,-0.53114 5.13036,-0.19959 6.86463,0.6609 1.73427,0.86049 2.40561,2.11059 3.20194,3.46738 0.7095,1.20884 1.02171,2.62449 1.3063,3.99697 0.2944,1.4198 0.48884,2.88367 0.40412,4.3312 -0.0848,1.44799 -0.17339,3.63658 -0.42326,5.43284 -0.24986,1.79626 -0.66095,3.20019 -1.39058,3.07884 -1.45926,-0.24269 -4.5216,-1.15111 -5.3833,-1.11871 z m -219.1388,22.52879 c -2.21531,-0.95195 -2.10855,-1.08429 0.9375,-1.16214 1.89062,-0.0484 3.4375,0.47464 3.4375,1.16214 0,1.46714 -0.96078,1.46714 -4.375,0 z m -89.03871,-0.86624 c 1.21621,-0.31692 2.90371,-0.29609 3.75,0.0464 0.84628,0.34241 -0.14879,0.60171 -2.21129,0.57623 -2.0625,-0.0255 -2.75492,-0.30562 -1.53871,-0.62255 z m 33.06663,-0.0585 c -4.22188,-0.26426 -6.9122,-0.95346 -6.47613,-1.65904 0.41027,-0.66383 1.32322,-0.85021 2.02877,-0.41415 0.70555,0.43605 2.62998,0.0719 4.27649,-0.80933 2.55838,-1.3692 3.34749,-1.28197 5.42704,0.60001 1.33836,1.2112 3.03132,1.83262 3.76215,1.38095 0.73081,-0.45166 1.32876,-0.22553 1.32876,0.50255 0,0.72807 -0.70312,1.21741 -1.5625,1.08742 -0.85937,-0.13 -4.81244,-0.43978 -8.78457,-0.68841 z m 24.72208,-1.05615 c 1.8685,-1.4211 4.07874,-1.6911 8.75,-1.06891 6.42499,0.85579 7.75255,1.33891 6.66569,2.42579 -0.3443,0.34429 -3.39118,0.10312 -6.77084,-0.53581 -3.78183,-0.71503 -6.60151,-0.7154 -7.33235,-9.9e-4 -0.65312,0.63845 -1.77813,1.14292 -2.5,1.12106 -0.72187,-0.0219 -0.1875,-0.89537 1.1875,-1.94114 z m -83.4375,-0.28216 c -4.76808,-0.559 -4.31852,-2.68846 0.625,-2.96054 10.63316,-0.5852 15.44148,-0.27981 16.875,1.0718 0.85937,0.81028 1.5625,1.68918 1.5625,1.95313 0,0.56548 -14.09603,0.51787 -19.0625,-0.0644 z m 369.5484,-79.34366 c 0.79124,1.88914 0.14465,4.56886 -1.31944,6.00112 -1.0898,1.0661 -2.99712,1.20485 -4.48745,0.88368 -1.72008,-0.37069 -3.41187,-1.5433 -4.29943,-3.06261 -0.79709,-1.36445 -0.97137,-3.20612 -0.49957,-4.71426 0.49208,-1.57297 1.60036,-3.4989 3.23027,-3.74336 2.87165,-0.43069 6.25384,1.95709 7.37562,4.63543 z M 33.283249,190.31413 c -2.35036,-1.0687 -4.65193,-2.25654 -6.86846,-3.58066 -2.66983,-1.59491 -7.71898,-5.24049 -7.71898,-5.24049 1.64579,-2.0737 6.07751,-6.04121 6.07751,-6.04121 0.30974,0.76294 2.47008,2.23872 3.77592,3.27262 2.08786,1.65307 4.20784,3.28339 6.47765,4.67616 1.39903,0.85846 2.81914,1.74022 4.37805,2.25407 1.846,0.60848 3.89233,1.49098 5.75535,0.93679 1.33897,-0.3983 2.88796,-1.44327 3.09589,-2.82467 0.29036,-1.92903 -1.51972,-3.73825 -2.97051,-5.04235 -1.98962,-1.78844 -4.83506,-2.29718 -7.30859,-3.31636 -3.81436,-1.57165 -7.61542,-3.24729 -11.60164,-4.31003 -2.89615,-0.77213 -5.88616,-1.77223 -8.86923,-1.48039 -2.03999,0.19957 -4.47425,0.56761 -5.75408,2.16868 -1.03086,1.28963 -0.92195,3.27209 -0.68296,4.9057 0.28126,1.92255 1.43116,3.63091 2.42389,5.30118 0.61515,1.03498 1.36257,1.99401 2.16765,2.88924 1.20637,1.34146 2.62434,2.32248 3.96164,3.6877 1.16183,1.18608 -6.27395,3.00983 -7.73658,3.45301 0,0 -3.41879,-3.0336 -4.83942,-4.80965 -1.59044,-1.98835 -2.90659,-4.19991 -4.06302,-6.46832 -1.024013,-2.00869 -1.953102,-4.09453 -2.52174804,-6.27629 -0.297322,-1.14076 -0.512586,-2.33047 -0.451023,-3.50772 0.05732,-1.09609 0.454103,-2.14965 0.758267,-3.20425 0.34725604,-1.20401 0.54966904,-2.49574 1.21539904,-3.55735 0.607675,-0.96903 1.478665,-1.79285 2.439895,-2.41279 1.22715,-0.79144 2.64453,-1.36587 4.09084,-1.567 3.0627,-0.42591 6.18404,0.35321 9.23943,0.82872 1.38796,0.21601 2.74614,0.59334 4.11304,0.91685 1.48983,0.35261 3.00169,0.63551 4.45527,1.11616 1.78628,0.59066 3.46638,1.46447 5.21343,2.16269 3.75203,1.49953 7.66679,2.61203 11.31369,4.3517 1.9219,0.9168 4.36784,2.39937 5.53417,3.19077 2.08662,1.79294 3.02069,2.5237 4.32778,3.98582 0.88054,0.98497 1.85611,1.96871 2.34291,3.19693 0.76921,1.94073 1.22007,4.17894 0.76382,6.21608 -0.30444,1.35933 -1.19777,2.59899 -2.23018,3.53418 -2.17021,1.96585 -4.97114,3.42562 -7.85508,3.93283 -1.84401,0.32432 -3.76254,-0.1969 -5.57918,-0.65008 -2.38621,-0.59527 -4.63205,-1.67031 -6.87081,-2.68827 z m 24.18963,31.85346 2.46456,7.31848 -3.2966,0.84782 c -2.09239,0.53813 3.29348,1.41876 4.67287,2.5299 1.53957,1.24016 3.45204,2.56222 3.86957,4.49457 0.27714,1.28264 -2.41976,3.76173 -1.10762,3.77768 2.48812,0.0302 5.94555,1.10889 7.79006,3.23018 1.23986,1.42591 1.63429,3.60953 1.42287,5.48724 -0.0917,0.81448 -0.69356,1.4902 -1.13101,2.18333 -1.03829,1.64512 -2.13763,3.28704 -3.5228,4.65298 -1.66545,1.64233 -3.44827,3.37627 -5.65313,4.15703 -2.50586,0.88736 -7.96633,0.37154 -7.96633,0.37154 -2.0187,-2.30861 -0.71237,-6.8946 -1.0764,-8.51762 -0.29251,-1.30417 2.64086,1.18188 4.04485,1.1748 1.27111,-0.006 2.59743,-0.38953 3.65113,-1.1005 1.17382,-0.79203 2.11589,-2.00518 2.65931,-3.3128 0.42459,-1.02169 0.97594,-2.3738 0.3687,-3.29867 -0.98564,-1.5012 -3.36201,-1.42091 -5.15086,-1.57942 -5.41109,-0.4795 -14.6051,3.23489 -16.17818,1.96332 -1.38295,-1.1179 -3.09155,-3.51263 -5.37954,-5.88953 0,0 5.3174,-0.57295 7.93565,-1.09828 1.94174,-0.38959 3.92878,-0.72669 5.74393,-1.51877 1.40292,-0.6122 3.90277,-0.92594 3.87975,-2.45643 -0.0352,-2.34142 -3.73896,-3.175 -6.04575,-3.57773 -5.44832,-0.9512 -15.1068,4.18804 -16.29778,3.11179 -1.19097,-1.07626 -3.43958,-3.45637 -4.09447,-5.0217 -0.47729,-1.14082 3.64731,-1.53673 5.50543,-2.21526 2.1291,-0.77749 4.30653,-1.41565 6.45958,-2.12413 0.77811,-0.25604 1.5426,-0.55778 2.33416,-0.7686 0.83818,-0.22323 1.71736,-0.27694 2.54904,-0.5233 0.85711,-0.25389 1.64843,-0.69706 2.4969,-0.97849 1.11071,-0.36843 2.26223,-0.60079 3.38621,-0.92649 1.99744,-0.57881 5.195,-1.79125 5.6659,-0.39294 z m -24.61491,-4.01913 c -4.09629,-0.26719 -8.40821,-2.20104 -11.12749,-5.27619 -2.6185,-2.96117 -4.4064,-7.36148 -3.73127,-11.25625 0.49804,-2.87315 2.96837,-5.2635 5.38672,-6.8928 1.68346,-1.13418 3.82548,-1.66078 5.85532,-1.67298 2.5283,-0.0152 5.13341,0.72263 7.3177,1.99596 2.38854,1.3924 4.13881,3.70993 5.84203,5.88776 0.89554,1.14509 1.86732,2.32875 2.26432,3.72719 0.47045,1.65721 0.36062,3.47579 0.0377,5.16795 -0.34834,1.82534 -0.73032,3.90205 -2.09072,5.16795 -2.50144,2.32768 -6.34464,3.37381 -9.75431,3.15141 z M 718.25992,189.21969 c 0.0531,1.29009 -0.64294,1.78558 -2.63568,4.56393 -1.59716,2.17325 -2.06383,2.44651 -4.04115,4.37392 -1.94222,1.8932 -3.97084,2.02568 -4.95474,2.41712 -0.98391,0.39143 -3.80945,0.39093 -3.80945,0.39093 0.19355,0.75142 1.56976,2.19068 2.48276,2.93058 0.913,0.73989 0.61142,2.89452 0.56536,3.56022 -0.0921,1.33139 -0.73387,2.07719 -1.16651,3.3702 -0.40845,1.22073 -1.1708,2.34571 -2.08882,3.24806 -0.76902,0.75591 -2.7506,1.70273 -2.7506,1.70273 l 0,-2e-5 c -1.68244,1.09444 -3.93837,-1.32651 -5.07844,-0.0749 -0.8964,0.98408 0.38767,2.63972 0.4302,3.97018 0.0405,1.26631 0.1087,2.56066 -0.16728,3.7972 -0.22448,1.00579 -0.43027,2.15722 -1.19012,2.85338 -1.09953,1.00737 -2.78587,1.15436 -4.26354,1.35501 -2.72956,0.37064 -6.53334,-2.46019 -8.25793,-0.31225 -1.17002,1.45723 0.83307,3.6492 1.41731,5.42434 0.51522,1.56544 1.65095,3.49568 1.83544,4.59081 0.1845,1.09513 0.79146,3.11192 0.13378,4.43763 -0.89936,1.81289 -3.18927,3.21402 -4.94249,3.52568 -1.75321,0.31165 -3.16501,-0.30202 -4.58588,-0.94835 -1.28151,-0.58294 -2.21096,-1.74591 -3.36261,-2.55571 -1.77325,-1.24687 -3.32797,-3.96087 -5.45466,-3.541 -1.72612,0.34079 -3.02987,2.58173 -3.00279,4.34097 0.0429,2.78942 3.10173,4.6621 4.97077,6.73319 1.90547,2.11146 6.31003,5.74327 6.31003,5.74327 -0.47162,0.50158 -4.56707,4.62862 -4.56707,4.62862 0,0 -2.61627,-2.21129 -3.87792,-3.369 -1.68958,-1.55037 -3.08929,-2.96707 -4.94049,-4.78711 -0.73425,-0.72188 -2.28989,-1.78592 -3.34434,-2.04442 -1.05445,-0.2585 -2.10329,-0.30815 -3.03279,0.13486 -1.05238,0.50158 -1.99323,2.36268 -1.92731,3.77355 0.087,1.86304 1.77904,3.31275 2.99852,4.72392 1.54138,1.78367 3.56792,3.08211 5.35838,4.6156 1.2649,1.08335 3.89006,2.21724 3.80386,3.23933 -0.0667,1.22187 -4.53335,4.69733 -5.31299,5.21575 -0.77964,0.51842 -3.48009,-2.51523 -5.1307,-3.8856 -1.62441,-1.34862 -3.18271,-2.77876 -4.68747,-4.25971 -2.40676,-2.36868 -4.54505,-4.99887 -6.93181,-7.3877 -0.8387,-0.83943 -1.88453,-1.66858 -2.5939,-2.43808 -0.70937,-0.7695 4.12924,-4.93792 5.42963,-5.26218 1.30039,-0.32426 3.77853,4.87075 3.44127,2.61671 -0.33726,-2.25404 -0.98621,-4.07468 -0.53888,-6.04893 0.30081,-1.3276 0.9921,-2.69634 2.08028,-3.51418 1.09322,-0.82162 2.61293,-1.17467 3.97235,-1.02574 1.14415,0.12534 2.16754,0.86139 3.07712,1.5667 0.4949,0.38375 1.24248,1.40924 1.24248,1.40924 0.19015,-2.81965 -0.71068,-4.15739 -0.46968,-6.22393 0.26256,-2.25131 0.51728,-4.81855 2.05823,-6.48071 1.50684,-1.62537 3.96289,-2.71866 6.16702,-2.48585 1.76198,0.18611 3.02199,1.86702 4.40596,2.97329 1.15156,0.92048 1.99987,2.20472 3.22081,3.03097 1.55205,1.05033 3.49557,3.33858 5.09895,2.3684 1.44936,-0.87699 0.58531,-3.41743 0.24213,-5.07634 -0.45097,-2.17991 -1.65141,-4.18077 -2.93873,-5.99687 -1.62612,-2.29407 -4.04434,-3.9149 -5.91842,-6.0113 -1.64522,-1.84041 -4.50563,-4.3338 -4.66421,-5.7524 l 4.50964,-6.82847 c 0.33635,-0.5093 1.82879,2.03468 2.72444,3.06846 0.73444,0.84772 1.36795,1.78799 2.17224,2.56975 1.71422,1.66622 3.45006,3.44028 5.60632,4.47244 2.08009,0.99569 4.44629,1.5274 6.75231,1.50659 1.0934,-0.01 2.46247,0.0459 3.1882,-0.77202 0.53475,-0.60266 0.58159,-1.65097 0.28528,-2.40021 -0.90066,-2.27737 -3.7576,-3.14187 -5.62267,-4.72905 -2.28511,-1.94462 -4.52408,-3.94331 -6.82143,-5.87346 -3.65838,-3.07363 -8.17188,-6.58299 -11.08599,-9.08734 l -4.98239,-4.28179 c -1.71125,-1.89091 -4.75807,-5.41548 -4.75807,-5.41548 1.69735,-1.71228 4.80062,-5.35685 6.12822,-6.87448 1.37082,-1.56704 4.79707,4.13346 7.1034,6.30117 1.70544,1.60294 3.24333,3.38039 4.97572,4.95416 2.24794,2.04212 4.71563,3.82975 7.01706,5.8114 1.69369,1.45836 3.27987,3.04009 4.9962,4.47173 2.16657,1.80719 4.21131,3.83447 6.68469,5.19179 1.06441,0.58412 2.22645,1.38872 3.42972,1.22655 0.89474,-0.12059 2.20593,-0.65194 2.21785,-1.55469 0.0147,-1.11426 -1.83116,-1.27549 -2.68586,-1.99052 -2.16073,-1.80763 -4.57568,-3.45997 -6.15193,-5.79486 -1.60161,-2.37246 -2.84546,-5.15012 -3.12403,-7.999 -0.32533,-3.32708 0.38848,-6.8272 1.76969,-9.87147 0.94642,-2.08595 2.39313,-4.08515 4.2914,-5.36713 1.95708,-1.32169 4.46274,-2.4633 6.78554,-2.03708 1.88741,0.34633 3.42426,1.96325 4.5668,3.50496 1.48455,2.0032 2.5873,4.50925 2.63046,7.0022 0.0412,2.38196 -2.17213,5.09448 -2.28023,6.77343 -0.1081,1.67894 2.94222,-2.56079 4.17571,-4.0599 0.30956,-0.37623 0,0 0.79799,-1.22458 z m -10.91617,-20.20812 c -2.84575,-0.79113 -5.17126,-2.8675 -7.63773,-4.49253 -2.03374,-1.33993 -3.98253,-2.8092 -5.88894,-4.32482 -2.07919,-1.653 -4.06441,-3.42214 -6.04336,-5.19392 -1.25782,-1.12614 -2.51559,-2.25526 -3.7042,-3.45421 -1.77611,-1.79156 -5.89003,-4.77034 -5.11338,-5.57956 0.77666,-0.80923 3.93043,-5.21356 5.10331,-6.54604 1.17288,-1.33248 3.81053,2.8569 5.60676,4.41712 1.45464,1.26351 2.75695,2.69332 4.17731,3.99524 2.55643,2.34325 5.08869,4.7244 7.81662,6.86556 2.77677,2.17947 5.81564,4.00356 8.67862,6.06847 2.89183,2.08572 9.11765,5.0979 8.58306,6.38335 -2.12196,2.71824 -8.51291,2.55863 -11.57807,1.86134 z m 16.23127,1.06319 c 1.72096,0.80916 3.73381,2.56397 3.56042,4.45774 -0.16727,1.82686 -2.40509,3.06537 -4.15843,3.60502 -1.51921,0.46759 -3.2633,0.0412 -4.73598,-0.55699 -1.87979,-0.76356 -4.8354,-1.677 -4.82862,-3.70593 0.007,-2.04682 2.96161,-3.03711 4.89608,-3.70593 1.65941,-0.57372 3.67761,-0.84099 5.26653,-0.0939 z m -440.77005,56.57806 c 0.28646,-0.85938 1.27084,-1.5625 2.1875,-1.5625 0.91666,0 1.90104,0.70312 2.1875,1.5625 0.30982,0.92949 -0.57639,1.5625 -2.1875,1.5625 -1.61111,0 -2.49733,-0.63301 -2.1875,-1.5625 z m 39.6875,-0.17876 c 0,-1.18579 3.74172,-1.7834 4.40874,-0.70415 0.40635,0.65747 -0.41939,1.19541 -1.83497,1.19541 -1.41557,0 -2.57377,-0.22107 -2.57377,-0.49126 z M 37.670959,206.92402 c 0.33102,-2.69455 -2.29328,-5.56217 -4.81446,-6.56907 -1.46442,-0.58485 -3.48417,-0.21618 -4.65558,0.83946 -1.31756,1.18734 -1.68119,4.20887 -1.48207,5.11031 0.88097,3.98829 3.77581,4.5492 6.35872,4.4403 1.98986,-0.0839 4.35055,-1.84423 4.59339,-3.821 z m 422.321511,5.0413 c 0,-0.6875 0.5957,-1.25 1.32377,-1.25 0.72808,0 0.97613,0.5625 0.55123,1.25 -0.4249,0.6875 -1.0206,1.25 -1.32377,1.25 -0.30318,0 -0.55123,-0.5625 -0.55123,-1.25 z m 13.01332,-1.4307 c -0.45848,-0.74184 -0.0584,-1.8398 0.88903,-2.43991 1.24745,-0.79013 1.29163,-1.09639 0.16015,-1.11025 -2.1233,-0.026 -1.96845,-2.29175 0.3125,-4.57271 1.03125,-1.03125 1.875,-1.395 1.875,-0.80835 0,0.58666 1.52656,1.193 3.39236,1.34741 1.86579,0.15442 3.8817,1.15518 4.4798,2.22393 0.78057,1.39478 2.11619,1.71723 4.73265,1.14256 5.78398,-1.27038 4.24133,1.42298 -1.66731,2.91101 -9.24029,2.32706 -13.31142,2.70226 -14.17417,1.30631 z m -53.01332,-8.40083 c 0,-1.46933 4.85031,-3.23483 5.92754,-2.15761 0.96121,0.96123 0.31506,1.48873 -3.11504,2.54309 -1.61801,0.49735 -2.8125,0.33364 -2.8125,-0.38548 z m 11.25,0.59027 c 0,-0.2702 0.87296,-0.82625 1.93993,-1.23569 1.11239,-0.42686 1.61414,-0.21731 1.17622,0.49126 -0.73408,1.18776 -3.11615,1.75681 -3.11615,0.74443 z m 5.71283,-0.61663 c -0.81377,-1.3167 2.75656,-2.34066 5.84967,-1.67767 1.20312,0.25787 2.1875,0.99012 2.1875,1.62721 0,1.47971 -7.12619,1.52446 -8.03717,0.0505 z m 34.28717,-1.46588 c 0,-0.72808 0.5625,-0.97613 1.25,-0.55123 0.6875,0.4249 1.25,1.0206 1.25,1.32377 0,0.30318 -0.5625,0.55123 -1.25,0.55123 -0.6875,0 -1.25,-0.5957 -1.25,-1.32377 z M 240.73816,199.6606 c -1.16238,-1.88078 0.58841,-2.31589 5.50431,-1.36799 2.40625,0.46399 3.53125,0.92534 2.5,1.02522 -1.03125,0.0999 -3.07714,0.5042 -4.54643,0.89845 -1.46928,0.39426 -3.02533,0.1442 -3.45788,-0.55568 z m 16.12931,-0.19528 c -0.4249,-0.6875 -0.17685,-1.25 0.55123,-1.25 0.72807,0 1.32377,-0.89063 1.32377,-1.97916 0,-2.93574 2.82831,-1.45753 3.31516,1.73266 0.3093,2.0267 -0.21466,2.7465 -1.99924,2.7465 -1.33011,0 -2.76602,-0.5625 -3.19092,-1.25 z m -23.125,-1.74126 c 0,-0.2702 0.87296,-0.82625 1.93993,-1.23569 1.11239,-0.42686 1.61414,-0.21731 1.17622,0.49126 -0.73408,1.18776 -3.11615,1.75681 -3.11615,0.74443 z m 172.16666,-2.16385 c 0.84793,-0.85428 1.85655,-1.23834 2.24142,-0.85348 0.38486,0.38486 -0.30889,1.08381 -1.54167,1.55323 -1.7815,0.67835 -1.92507,0.53477 -0.69975,-0.69975 z m 30.33334,-0.33615 c 0,-0.2702 0.84375,-0.81504 1.875,-1.21078 1.03125,-0.39572 1.875,-0.17465 1.875,0.49126 0,0.66593 -0.84375,1.21078 -1.875,1.21078 -1.03125,0 -1.875,-0.22107 -1.875,-0.49126 z m 41.43732,-3.65803 c -1.74131,-2.09815 -0.64315,-3.35071 2.93768,-3.35071 4.14451,0 4.79075,-1.55065 1.63749,-3.92915 -1.56758,-1.18243 -2.50363,-2.49638 -2.08013,-2.91989 0.42352,-0.4235 1.67642,0.13639 2.78424,1.24421 1.10783,1.10783 2.5746,1.66789 3.25949,1.2446 0.72921,-0.45067 0.92492,0.0652 0.47224,1.24488 -0.52858,1.37745 0.0689,2.23465 1.88932,2.71071 3.88199,1.01516 3.25774,2.58616 -1.40015,3.52364 -2.23438,0.4497 -4.96746,1.0696 -6.07352,1.37754 -1.10607,0.30795 -2.64805,-0.20768 -3.42666,-1.14583 z m -3.62482,-6.3006 c -3.39254,-1.68021 -3.46971,-3.0376 -0.38305,-6.73761 2.40059,-2.8776 6.8427,-3.63109 9.91915,-1.68253 1.27272,0.80613 0.51964,1.52705 -2.87895,2.756 -3.88446,1.40464 -4.49096,2.10894 -3.88729,4.51417 0.3934,1.56742 0.56393,2.7808 0.37895,2.69638 -0.18497,-0.0844 -1.60194,-0.7803 -3.14881,-1.54641 z m -69.0625,-5.80011 c 0,-0.6875 1.54687,-1.24139 3.4375,-1.23086 2.67867,0.0149 3.02359,0.28663 1.5625,1.23086 -2.44566,1.58051 -5,1.58051 -5,0 z m -17.73438,-7.10389 c 0.90234,-0.36108 1.98048,-0.31668 2.39584,0.0986 0.41536,0.41536 -0.32292,0.7108 -1.64062,0.65652 -1.45619,-0.06 -1.75238,-0.35617 -0.75522,-0.7552 z m 89.29688,-2.2597 c -4.88711,-2.12414 -4.98872,-3.02844 -0.69246,-6.16247 1.81031,-1.32058 2.83374,-1.66043 2.27427,-0.7552 -0.78395,1.26846 -0.25786,1.45529 2.29425,0.81475 1.95929,-0.49175 3.31144,-0.31099 3.31144,0.4427 0,0.7006 1.29874,1.27381 2.88609,1.27381 1.58735,0 3.92612,0.76049 5.19727,1.68997 2.16904,1.58606 2.0934,1.74464 -1.22985,2.57873 -2.58977,0.64999 -3.83474,0.3639 -4.63438,-1.06498 -1.31633,-2.35214 -7.7073,-2.71691 -6.85454,-0.39122 0.3151,0.85937 1.24754,1.40794 2.07207,1.21902 0.82454,-0.1889 1.1429,0.23298 0.70748,0.9375 -0.43543,0.70454 -0.89911,1.25897 -1.03041,1.23205 -0.1313,-0.0269 -2.06685,-0.84351 -4.30123,-1.81466 z m -45.3125,-1.88641 c 0,-0.6875 0.5957,-1.25 1.32377,-1.25 0.72808,0 0.97613,0.5625 0.55123,1.25 -0.4249,0.6875 -1.0206,1.25 -1.32377,1.25 -0.30318,0 -0.55123,-0.5625 -0.55123,-1.25 z m -48.75,-0.94389 c 0,-0.6875 0.84375,-1.95025 1.875,-2.80611 1.04592,-0.86804 1.875,-1.0034 1.875,-0.30611 0,0.6875 -0.84375,1.95025 -1.875,2.80611 -1.04593,0.86804 -1.875,1.0034 -1.875,0.30611 z m -73.75,-4.54737 c 0,-0.2702 0.87296,-0.82625 1.93993,-1.23569 1.11239,-0.42686 1.61414,-0.21731 1.17622,0.49126 -0.73408,1.18776 -3.11615,1.75681 -3.11615,0.74443 z m 73.75,-5.05997 c 0,-1.07182 0.5625,-1.94877 1.25,-1.94877 0.6875,0 1.25,0.5293 1.25,1.17623 0,0.64692 -0.5625,1.52387 -1.25,1.94877 -0.6875,0.4249 -1.25,-0.10438 -1.25,-1.17623 z m 52.5,-9.44877 c 0,-0.6875 0.5957,-1.25 1.32377,-1.25 0.72808,0 0.97613,0.5625 0.55123,1.25 -0.4249,0.6875 -1.0206,1.25 -1.32377,1.25 -0.30318,0 -0.55123,-0.5625 -0.55123,-1.25 z m -53.98438,-0.85389 c 0.90234,-0.36108 1.98048,-0.31668 2.39584,0.0986 0.41536,0.41536 -0.32292,0.7108 -1.64062,0.65652 -1.45619,-0.06 -1.75238,-0.35617 -0.75522,-0.7552 z m 43.98438,-0.39611 c 0,-0.6875 0.87695,-1.25 1.94877,-1.25 1.07183,0 1.60113,0.5625 1.17623,1.25 -0.4249,0.6875 -1.30185,1.25 -1.94877,1.25 -0.64693,0 -1.17623,-0.5625 -1.17623,-1.25 z m -121.25,-6.91423 c 0,-1.00967 0.84375,-1.83577 1.875,-1.83577 1.03125,0 1.875,0.50232 1.875,1.11626 0,0.61395 -0.84375,1.44004 -1.875,1.83578 -1.14214,0.43827 -1.875,0.002 -1.875,-1.11627 z m 4.50874,-11.31301 c -1.0721,-2.79382 -0.98755,-3.02276 1.11626,-3.02276 1.04166,0 1.875,1.11111 1.875,2.5 0,2.98031 -1.91949,3.31576 -2.99126,0.52276 z m -10.57124,-4.21026 c 0.275,-0.825 0.90781,-1.45781 1.40625,-1.40625 1.49462,0.15461 1.20517,1.86911 -0.40625,2.40625 -0.825,0.275 -1.275,-0.175 -1,-1 z m 2.0625,-31.562505 c 1.16666,-1.16666 1.83334,-1.16666 3,0 1.16666,1.16666 0.83334,1.5 -1.5,1.5 -2.33334,0 -2.66666,-0.33334 -1.5,-1.5 z m -1.33334,-7.40511 c 0.84793,-0.85428 1.85655,-1.23834 2.24141,-0.85348 0.38487,0.38486 -0.30888,1.08381 -1.54166,1.55323 -1.7815,0.67835 -1.92507,0.53477 -0.69975,-0.69975 z m 17.84906,-2.32308 c -0.99969,-1.387 -2.81845,-2.52181 -4.04167,-2.52181 -1.22323,0 -2.22405,-0.5625 -2.22405,-1.25 0,-0.6875 2.15195,-1.25 4.78211,-1.25 3.4847,0 5.57859,0.84782 7.71789,3.125 2.3137,2.46282 2.51398,3.125 0.94513,3.125 -1.09487,0 -2.74917,0.29106 -3.67623,0.64681 -0.92705,0.35575 -2.50349,-0.488 -3.50318,-1.875 z m -15.01572,-1.97059 c 0,-1.07182 0.57167,-1.59545 1.27039,-1.16362 0.69871,0.43182 0.94677,1.30877 0.55122,1.94877 -1.07154,1.7338 -1.82161,1.41052 -1.82161,-0.78515 z" />
      <text
         xml:space="preserve"
         style="font-style:normal;font-variant:normal;font-weight:bold;font-stretch:normal;font-size:75px;line-height:125%;font-family:Giulio;-inkscape-font-specification:'Giulio, Bold';text-align:start;letter-spacing:0px;word-spacing:0px;writing-mode:lr-tb;text-anchor:start;fill:#000000;fill-opacity:1;stroke:none;stroke-width:1px;stroke-linecap:butt;stroke-linejoin:miter;stroke-opacity:1"
         x="286.29288"
         y="217.13164"
         id="text3875"><tspan
           id="tspan3877"
           x="286.29288"
           y="217.13164" /></text>
      <g
         style="font-style:normal;font-variant:normal;font-weight:bold;font-stretch:normal;font-size:75px;line-height:125%;font-family:Giulio;-inkscape-font-specification:'Giulio, Bold';text-align:start;letter-spacing:0px;word-spacing:0px;writing-mode:lr-tb;text-anchor:start;fill:#000000;fill-opacity:1;stroke:none;stroke-width:1px;stroke-linecap:butt;stroke-linejoin:miter;stroke-opacity:1"
         id="text4036"
         transform="matrix(1.0551076,-0.00511487,0.00616114,0.90329415,-78.433111,-526.06078)">
        <path
           d="m 87.826189,648.06632 c 2.756981,0.80439 5.513413,1.5851 8.268714,2.3417 -2.68917,-4.8415 -5.305524,-9.72162 -7.850451,-14.63594 -1.943167,-3.75231 -2.189896,-4.42417 -2.460396,-5.47064 -0.409565,-1.87772 0.284051,-3.44918 2.002267,-4.30653 1.567583,-0.7822 3.692871,-0.76826 8.076183,-0.10401 3.527269,0.5327 8.432024,1.92236 12.118504,3.32449 8.03365,3.18994 14.79667,7.30644 16.48247,10.28608 0.60938,1.07706 0.35355,2.20102 -0.53285,2.70738 -1.09475,0.62538 -3.54959,0.44578 -6.31453,-0.42684 -3.78366,-1.25826 -10.09097,-4.1334 -14.35245,-6.59147 -1.07841,-0.62007 -2.15595,-1.24485 -3.23257,-1.87428 -1.446224,-0.81665 -2.890952,-1.64158 -4.334059,-2.47469 0.807136,2.91707 1.638927,5.83242 2.49604,8.74549 6.546169,3.75233 10.574709,5.63123 14.654529,7.18071 7.48941,2.74557 12.89474,2.95231 16.39485,0.88612 3.05176,-1.80153 3.55041,-5.77951 1.35753,-9.626 -3.25905,-5.71665 -11.4731,-11.57552 -21.16589,-15.38758 -10.987766,-4.29694 -19.991527,-5.57402 -25.359151,-2.97713 -2.970224,1.43702 -4.758138,3.67271 -5.221085,6.68296 -0.412914,2.2815 0.400433,5.30911 2.584517,9.58113 2.080359,4.06914 4.209382,8.11629 6.387828,12.13905 z"
           style="font-style:normal;font-variant:normal;font-weight:bold;font-stretch:normal;font-size:60px;line-height:125%;font-family:Giulio;-inkscape-font-specification:'Giulio, Bold';text-align:start;writing-mode:lr-tb;text-anchor:start"
           id="path4049" />
        <path
           d="m 118.32598,675.21659 c 1.92415,-0.28504 3.84532,-0.57803 5.76342,-0.879 -0.91337,-1.41662 -1.81971,-2.83798 -2.71906,-4.26395 1.48237,-1.73355 1.99268,-2.7426 2.37267,-4.26403 0.57755,-2.32893 0.029,-5.21992 -1.3461,-7.49285 -4.23559,-7.00126 -15.73198,-10.24446 -22.907913,-6.20575 -4.441145,2.49954 -5.398327,8.20035 -2.056051,13.86858 2.175234,3.68902 5.847404,6.26631 10.296084,7.17793 2.71269,0.55008 5.15599,0.45941 9.02767,-0.2743 0.52101,0.77929 1.0441,1.55709 1.56928,2.33337 z m -14.65134,-17.59243 c 3.36776,-1.95122 9.39159,-0.71373 12.56846,2.54731 -0.68604,0.31418 -1.37358,0.62858 -1.82343,0.89878 -1.92863,1.15839 -2.47485,3.46482 -1.24087,5.91253 -4.60417,0.81946 -8.87522,-0.72619 -10.76808,-3.93692 -1.27429,-2.16149 -0.81265,-4.21857 1.26392,-5.4217 z"
           id="path4051" />
        <path
           d="m 106.75379,680.36412 c 1.79026,2.17124 3.59658,4.32631 5.41894,6.46461 5.24266,0.0896 10.55929,0.70127 15.06065,1.72837 2.9687,0.75361 5.13834,1.50352 5.47741,1.98879 0.24198,0.34631 0.19074,0.79552 -0.0548,0.96769 -0.24334,0.17061 -0.26033,0.28651 -1.64288,0.52948 -4.96467,0.88167 -9.95301,1.70618 -14.96342,2.47433 1.86175,2.11304 3.73963,4.20873 5.6336,6.28644 8.53308,-0.18549 19.49372,1.48353 20.85297,3.28874 0.20326,0.26995 0.12576,0.54032 -0.11358,0.72095 -0.1791,0.13517 -0.58973,0.33929 -1.33231,0.47399 -2.98092,0.652 -5.9715,1.28264 -8.97138,1.89211 -0.97928,0.18818 -2.16004,0.73589 -2.82299,1.22532 -1.56217,1.15328 -1.30975,2.91664 1.01306,5.98892 1.59947,2.11555 3.21687,4.21835 4.85234,6.30795 2.09172,-0.48921 4.17857,-0.98883 6.26046,-1.49893 -0.71523,-0.90304 -1.42703,-1.80867 -2.1354,-2.71687 -1.2758,-1.6357 -1.60589,-2.6879 -1.0726,-3.09813 0.23728,-0.18253 1.16789,-0.5722 1.91119,-0.71228 2.38733,-0.50469 4.76833,-1.02347 7.14279,-1.55645 2.66925,-0.58938 3.25718,-0.84146 4.25137,-1.62408 1.82708,-1.43828 1.97492,-3.78418 0.30597,-5.94895 -1.37781,-1.78715 -3.00852,-2.69454 -6.66053,-3.94526 -3.1248,-1.09846 -4.0505,-1.40185 -6.16711,-1.92252 1.50784,-0.47347 2.3358,-0.87171 2.93941,-1.31296 1.75556,-1.28337 1.82996,-3.71505 0.28588,-5.87233 -1.73343,-2.42182 -4.34016,-3.63368 -12.63533,-6.20561 2.31598,-0.41422 4.62706,-0.84042 6.93308,-1.27867 -1.7909,-2.03606 -3.56664,-4.0901 -5.3272,-6.1615 -8.09052,1.31868 -16.23932,2.48985 -24.43958,3.51685 z"
           id="path4053" />
        <path
           d="m 126.9584,725.66276 c -2.83597,0.58729 -5.68058,1.15528 -8.53353,1.70411 -1.03226,0.29595 -2.06559,0.58975 -3.09999,0.88139 1.80226,1.95122 3.61962,3.88786 5.45208,5.80948 5.05507,-0.29321 12.84422,-1.99238 16.92739,-3.44709 3.50334,-1.23799 5.34287,-1.43535 10.33384,-1.60767 5.88314,-0.11166 7.98351,0.0765 14.76642,1.34497 2.3223,0.42008 4.00148,0.78155 5.29039,1.19064 1.60719,0.51003 2.56411,1.08275 3.28777,1.87637 0.73273,0.80358 0.75188,2.04202 -0.0207,2.75326 -1.59945,1.4724 -5.1272,1.97216 -9.37542,1.16946 -0.10401,-0.0174 -0.20643,-0.0349 -0.30734,-0.0527 0,0 0,0 0,0 -3.51779,-0.62017 -5.33701,-1.54762 -10.10983,-5.1428 -2.21148,0.21802 -4.42874,0.42062 -6.65157,0.60793 3.11558,3.71821 6.29237,7.38939 9.53125,11.01071 1.77233,1.98093 3.56373,3.94597 5.374,5.89451 2.02628,-0.68464 4.04653,-1.37996 6.06058,-2.08596 -1.5832,-1.68256 -3.15218,-3.37796 -4.70679,-5.08579 5.4258,2.25635 12.12243,1.37414 15.39366,-1.74089 2.9352,-2.79506 2.6817,-7.50254 -0.47418,-10.9537 -0.86333,-0.9441 -1.93866,-1.77617 -3.2469,-2.50885 -3.52198,-1.97261 -8.6738,-3.20206 -15.94135,-4.03112 0.51059,-0.20791 0.96658,-0.48123 1.08127,-0.57769 3.06221,-1.69662 4.39142,-2.60354 5.69876,-3.70748 l 0.57276,-0.48364 c -1.71041,-2.10199 -3.40057,-4.22024 -5.07068,-6.35418 -2.11439,1.93284 -3.08458,2.7224 -3.73329,3.24997 -5.8712,4.77485 -12.68173,7.82374 -20.66326,8.97864 -3.06687,0.39038 -4.97402,0.67075 -5.57819,0.7892 -0.75176,0.1743 -1.50413,0.34728 -2.25712,0.51894 z"
           id="path4055" />
        <path
           d="m 184.88607,774.445 c 1.98461,-0.83301 3.96157,-1.677 5.9307,-2.53195 -0.68917,-0.6172 -1.37617,-1.23679 -2.06099,-1.85874 -2.31693,-2.10422 -3.12348,-4.40679 -1.94777,-5.6673 0.0512,-0.0549 0.15349,-0.16453 0.36997,-0.27055 5.58998,-0.87883 9.5039,-2.33398 15.30583,-5.72395 -2.46614,-1.67611 -4.91692,-3.38444 -7.35162,-5.12413 -4.07223,1.22452 -5.36752,1.73123 -10.81044,3.89954 -3.82433,1.00929 -7.58975,0.77397 -8.82362,-0.45592 -0.49101,-0.48942 -0.53835,-1.17487 -0.11338,-1.59874 0.32068,-0.31984 0.65159,-0.40516 2.03406,-0.93673 4.80718,-1.77366 9.57466,-3.61111 14.30007,-5.51198 -2.19089,-1.63293 -4.36782,-3.29142 -6.53028,-4.97479 -5.20318,2.03471 -10.45371,3.99508 -15.74866,5.88063 -1.56319,0.54031 -2.44639,1.02148 -3.04479,1.59275 -2.04835,1.95546 -1.39075,4.35122 2.6406,8.41927 2.22053,2.24076 4.4645,3.39593 8.07315,4.1802 -0.0692,2.33017 0.81007,4.22441 3.05564,6.32826 1.56214,1.46355 3.13602,2.91503 4.72153,4.35413 z"
           id="path4057" />
        <path
           d="m 201.52567,788.73659 c 1.93601,-0.93973 3.86345,-1.89037 5.78214,-2.85188 -1.5127,-1.21103 -3.01617,-2.43342 -4.51032,-3.66695 -1.80699,-1.4918 -2.12027,-2.062 -1.68911,-2.57608 0.19569,-0.23332 0.1904,-0.22577 1.68527,-0.93686 3.06377,-1.38225 6.10633,-2.79269 9.127,-4.23121 1.45508,1.18825 2.91894,2.36543 4.39151,3.53131 1.94445,-1.011 3.87944,-2.03349 5.80479,-3.06745 -1.41318,-1.10252 -2.81844,-2.21571 -4.21571,-3.33935 3.14391,-1.5776 6.26313,-3.18587 9.35684,-4.82469 -2.21834,-1.39171 -4.4247,-2.81053 -6.6186,-4.25579 -2.91674,1.38977 -5.85476,2.75229 -8.81338,4.08745 -1.39493,-1.17147 -2.78152,-2.35338 -4.1597,-3.5455 -1.99744,0.91707 -4.00384,1.82216 -6.01902,2.71525 1.39164,1.22119 2.79197,2.43221 4.20093,3.63283 -3.02944,1.39327 -6.07957,2.75906 -9.14972,4.09727 -2.26372,1.02048 -3.11142,1.45622 -3.80842,2.2506 -2.01488,2.2964 -0.92005,5.03086 3.74546,8.94503 1.61895,1.35823 3.249,2.70368 4.89004,4.03602 z"
           id="path4059" />
        <path
           d="m 223.65034,805.42027 c 1.86339,-1.07575 3.71704,-2.16231 5.56077,-3.25966 -3.48154,-2.39457 -6.92095,-4.84859 -10.31742,-7.35952 0.49108,0.11443 0.98208,0.22774 1.47299,0.33992 9.03582,2.242 15.97861,0.98135 18.45174,-2.6678 2.02169,-2.98304 1.0748,-6.31681 -2.33372,-8.72635 -7.17581,-5.07268 -21.30037,-4.25129 -26.3299,2.1036 -1.95502,2.4702 -2.19878,5.43519 -0.68008,7.93948 0.9538,1.4945 2.68683,3.29545 5.16319,5.13558 2.97141,2.20798 5.97572,4.37344 9.01243,6.49475 z m -7.10713,-16.69634 c 4.63838,-2.83921 12.26379,-3.26265 15.61144,-0.87984 0.54479,0.38778 0.67068,0.93523 0.32435,1.42499 -1.2741,1.8018 -9.13892,1.69081 -15.93579,-0.54515 z"
           id="path4061" />
        <path
           d="m 247.75916,820.91004 c 1.7681,-1.21285 3.52534,-2.43632 5.27156,-3.67039 0,0 0.021,-0.0149 0.021,-0.0149 0,0 -0.009,-0.005 -0.009,-0.005 -2.231,-1.28925 -4.44704,-2.60261 -6.64794,-3.93949 -2.08192,-1.26462 -2.50161,-2.06806 -1.71425,-3.33888 1.30059,-2.09918 6.14751,-3.85633 11.67961,-4.33053 0.70015,0.41225 1.40182,0.82199 2.10498,1.2292 0.37188,-0.31349 0.74325,-0.62742 1.1141,-0.9418 1.26999,-1.07662 2.53384,-2.15844 3.79153,-3.24542 -0.48087,-0.27435 -0.96103,-0.5499 -1.4405,-0.82666 -3.73911,-2.15653 -7.43578,-4.38683 -11.08903,-6.68778 1.00532,-0.66625 2.00715,-1.33602 3.00547,-2.00932 -1.87308,-1.16801 -3.73481,-2.35489 -5.58506,-3.56021 -3.76765,2.43637 -7.58276,4.82382 -11.44368,7.16211 1.89678,1.2798 3.80591,2.54129 5.72726,3.78402 0.90879,-0.5728 1.8149,-1.14838 2.71831,-1.72675 1.20268,0.77125 2.41012,1.53504 3.62229,2.29129 -1.15767,0.42648 -2.31943,0.84741 -3.48523,1.26277 -4.90925,1.70533 -6.94353,2.90524 -8.42922,5.1901 -1.06201,1.63327 -1.18341,3.25702 -0.34156,5.04396 0.69563,1.50772 2.21723,2.93676 5.29746,4.82801 1.93238,1.18648 3.87649,2.35528 5.8322,3.50603 z"
           id="path4063" />
        <path
           d="m 269.77352,832.88792 c 3.73952,1.11689 7.48793,2.16761 11.24285,3.15203 1.42913,-0.58704 3.354,-1.25989 7.07488,-3.3469 0.87024,-0.49247 1.73725,-0.98808 2.60102,-1.48678 0,0 1.09819,-0.63747 2.14221,-1.17069 11.70356,-3.94827 19.37323,-6.31007 28.55866,-8.36545 7.92767,-1.77034 9.74349,-2.16655 11.68899,-1.57303 1.57595,0.48078 2.28366,1.68685 1.85837,3.12613 -0.8655,2.92905 -4.47948,5.88853 -9.96215,7.78971 -5.56795,1.93947 -11.88776,1.86029 -17.70313,-0.34175 -0.56123,-0.21251 -1.26489,-0.48042 -2.24259,-0.92285 -2.92556,0.90492 -5.88043,1.77053 -8.86339,2.59594 2.45667,1.5278 4.47712,2.52927 6.95185,3.48357 1.7786,3.57397 2.92114,7.90677 3.45611,12.68475 4.55326,1.63893 9.14146,3.18255 13.76106,4.62874 -0.29189,-2.22866 -0.56649,-4.45601 -0.82388,-6.68187 -2.07493,-0.66848 -4.1433,-1.35702 -6.20478,-2.06543 -0.3369,-1.39662 -0.53007,-2.26585 -0.77252,-3.06141 -0.17601,-0.61227 -0.35021,-1.22456 -0.5226,-1.83684 -0.0892,-0.1582 -0.1445,-0.62423 -0.35048,-1.26991 7.64587,0.64914 11.99618,0.0123 17.43852,-2.09638 6.28947,-2.44491 10.87204,-7.03898 12.12238,-11.61876 1.29662,-4.74928 -0.49982,-8.70339 -4.33931,-9.84611 -3.57883,-1.06515 -8.52064,-0.52426 -16.86052,1.38243 -4.59986,1.05331 -5.09851,1.27599 -12.52197,3.52399 0.33544,-0.3196 0.67024,-0.63965 1.00437,-0.96015 3.85058,-3.6702 4.73236,-4.59253 5.3337,-6.17583 0.5961,-1.56948 0.38222,-3.32074 -0.55893,-4.52068 -0.89066,-1.18765 -1.89167,-1.82682 -4.26902,-2.79398 -2.09977,-0.85424 -4.19047,-1.73185 -6.27158,-2.63252 -0.22136,2.08361 -0.43083,4.17027 -0.62837,6.25989 0.66348,0.28235 1.32791,0.56241 1.99326,0.84016 1.87619,0.78321 2.56235,1.63649 2.08723,2.80636 -0.58449,1.43915 -2.52875,3.51581 -5.60841,5.80193 -1.64602,1.20723 -3.3423,2.43798 -9.55071,6.09035 -17.20394,6.80044 -10.561,3.63951 -21.26112,8.60134 z"
           style="font-style:normal;font-variant:normal;font-weight:bold;font-stretch:normal;font-size:60px;line-height:125%;font-family:Giulio;-inkscape-font-specification:'Giulio, Bold';text-align:start;writing-mode:lr-tb;text-anchor:start"
           id="path4065" />
        <path
           d="m 346.78027,860.26836 c 1.32399,-1.6991 2.63333,-3.40539 3.92788,-5.11874 -4.14143,-0.90309 -8.26452,-1.8857 -12.36678,-2.94635 0.49961,-0.0774 0.99866,-0.15588 1.49715,-0.23553 9.24544,-1.30231 15.19203,-5.11383 16.09751,-9.42732 0.74084,-3.52915 -1.3941,-6.25248 -5.4436,-7.19528 -8.49502,-1.97779 -21.31257,4.04188 -23.62766,11.79397 -0.90146,3.01855 -0.0251,5.86528 2.32934,7.63066 1.44863,1.0354 3.74011,2.06602 6.74015,2.85092 3.59968,0.94179 7.21556,1.82467 10.84601,2.64767 z m -12.90242,-12.82943 c 3.24755,-4.35861 10.16521,-7.60773 14.14898,-6.66449 0.64979,0.15384 0.97223,0.61342 0.83595,1.19782 -0.50216,2.15333 -7.8253,5.01261 -14.98493,5.46667 z"
           id="path4067" />
        <path
           d="m 345.05528,869.64262 c -1.84594,2.24857 -3.71885,4.48341 -5.61841,6.70414 -0.62367,0.87953 -1.2505,1.75759 -1.88046,2.63419 2.70731,0.39569 5.41721,0.76022 8.12906,1.09342 2.39755,-2.16443 5.30231,-5.49106 7.70647,-8.66053 1.34913,-1.7796 2.50536,-3.46246 3.28928,-4.77972 1.92404,-3.21399 3.19744,-4.5092 6.94253,-7.87275 4.52057,-3.9347 6.10487,-5.04158 12.15709,-8.54363 4.5893,-2.69194 6.53866,-3.51201 8.48057,-3.28416 1.07557,0.12619 1.90029,1.04733 1.78445,2.09072 -0.23972,2.15935 -2.56805,4.85476 -6.31783,7.02423 -3.21805,1.95446 -5.19428,2.47423 -11.34502,2.83035 -1.55285,1.59804 -3.12536,3.18547 -4.71749,4.76193 7.48096,1.29471 15.00276,2.33683 22.54937,3.12728 1.08398,-1.84695 2.15321,-3.69893 3.20766,-5.55575 -2.31063,-0.22384 -4.61901,-0.47163 -6.92466,-0.74341 5.61421,-1.85267 10.05889,-6.92998 10.46177,-11.42983 0.3613,-4.03544 -2.91776,-7.40009 -7.51932,-7.93266 -4.6854,-0.54228 -10.39004,1.951 -18.74783,7.53159 0.25561,-0.48867 0.42712,-0.99213 0.45239,-1.13988 1.2398,-3.27027 1.66775,-4.83146 1.95104,-6.51494 l 0.12445,-0.73955 c -2.64342,-0.49566 -5.27965,-1.02526 -7.90779,-1.58882 -0.38603,2.84505 -0.6225,4.0645 -0.78306,4.89042 -0.74888,3.85236 -1.98538,7.50809 -3.76695,10.97134 -1.65661,3.21999 -3.78489,6.27306 -6.42289,9.14625 -2.14851,2.26071 -3.44516,3.66484 -3.85036,4.14928 -0.47615,0.61108 -0.95418,1.22125 -1.43406,1.83049 z"
           id="path4069" />
        <path
           d="m 420.51633,868.63067 c 0.92323,-1.9461 1.83095,-3.89592 2.72315,-5.84927 -1.65375,0.006 -3.30756,7e-5 -4.96124,-0.0181 -1.22002,-0.0134 -1.90601,-0.55198 -1.88986,-1.52619 0.0208,-1.25721 1.81854,-5.23682 3.60123,-7.98475 -2.42566,0.0853 -4.85333,0.14388 -7.28242,0.17555 -2.42623,3.66606 -3.03462,4.867 -3.93267,7.37157 -1.16954,1.15252 -2.50477,1.62676 -4.76297,1.50664 -2.26242,-0.12034 -3.36046,-0.6493 -3.29437,-1.69429 0.13064,-2.06544 4.71407,-6.18817 8.80557,-8.11455 3.15028,-1.40831 6.14833,-1.86576 12.32907,-1.93898 1.4831,-1.92446 2.94003,-3.85902 4.37071,-5.80315 -1.54274,-0.0576 -2.0026,-0.0528 -3.13226,-0.0489 -7.11338,0.0246 -12.66282,1.09912 -18.08038,3.53339 -6.72152,3.0825 -11.57656,8.07656 -12.00053,12.99964 -0.2634,3.05847 0.90574,4.75519 3.9357,5.80533 1.64524,0.57241 3.65782,0.93026 5.69491,1.04497 3.08024,0.17346 4.28242,-0.16405 6.35969,-1.80241 1.33639,1.77009 2.40546,2.1962 5.31926,2.26112 2.06554,0.046 4.13145,0.0735 6.19741,0.0823 z"
           id="path4071" />
        <path
           d="m 441.19333,838.64857 c 3.34035,-0.20328 5.85656,-2.96911 5.61081,-6.03442 -0.24565,-3.06395 -3.1219,-5.38913 -6.21637,-5.20005 -3.25075,0.19863 -5.82675,2.77789 -5.69892,5.84999 0.13097,3.14747 2.96399,5.58777 6.30448,5.38448 z m -3.25299,29.61686 c 0.79437,-1.9889 1.57361,-3.9805 2.33771,-5.97464 -1.44854,0.0781 -2.89757,0.14698 -4.34699,0.20655 -0.87007,0.0358 -1.22606,-0.17753 -1.24853,-0.77661 -0.017,-0.45279 0.14065,-0.90267 0.69135,-2.27851 2.18148,-5.19113 4.25361,-10.40331 6.21606,-15.63299 -2.70727,0.69147 -5.43012,1.3487 -8.16763,1.97113 -1.90763,4.57068 -3.90234,9.12455 -5.9839,13.65907 -1.00016,2.11665 -1.5907,4.14691 -1.57877,5.1974 0.0288,2.54062 2.68639,3.96576 7.30342,3.81633 1.59284,-0.0516 3.18532,-0.11413 4.77728,-0.18773 z"
           id="path4073" />
        <path
           d="m 467.6704,865.5996 c 0.64883,-2.05372 1.28193,-4.10893 1.89935,-6.16546 -2.55578,0.36125 -5.11586,0.69375 -7.67966,0.99726 -0.0681,0.008 -0.13501,0.0156 -0.20065,0.0226 -2.26797,0.24171 -3.05279,-0.15274 -3.20987,-1.59796 -0.15823,-1.4559 0.73809,-3.5759 2.33373,-5.84632 1.10155,-1.56742 2.54165,-3.21359 4.20536,-4.76124 0.80539,-0.10649 1.61039,-0.21595 2.41497,-0.32837 0.44111,-2.10618 0.86867,-4.21286 1.28272,-6.31993 -3.02915,0.44352 -6.06433,0.84426 -9.10444,1.20173 -1.79335,0.211 -3.58852,0.4069 -5.38524,0.58769 0.38224,-1.14403 0.75932,-2.28869 1.13123,-3.43394 -2.19203,0.23076 -4.38652,0.43877 -6.58297,0.62402 -1.47212,4.23885 -3.01571,8.46809 -4.63058,12.68586 2.28421,-0.15329 4.56683,-0.33027 6.84734,-0.53091 0.36502,-1.01091 0.72597,-2.02239 1.08286,-3.03442 1.42266,-0.13103 2.84445,-0.27136 4.26525,-0.42098 -0.65007,1.04886 -1.30713,2.09583 -1.97117,3.14084 -2.82398,4.36719 -3.69436,6.56237 -3.46221,9.2807 0.16586,1.94214 1.06963,3.29844 2.83668,4.19003 1.47875,0.76102 3.56408,0.9519 7.16321,0.54373 0.48913,-0.0555 0.97815,-0.11199 1.46705,-0.16956 1.76753,-0.2083 3.53326,-0.43011 5.29704,-0.66538 z"
           id="path4075" />
        <path
           d="m 528.77367,836.85532 c 0.10553,-0.21981 0.21078,-0.43965 0.31574,-0.65954 1.41944,-0.47684 2.83579,-0.96293 4.24891,-1.45822 0.17881,-2.39405 0.33894,-4.78581 0.48047,-7.17505 -1.22555,0.44107 -2.45364,0.87508 -3.68418,1.30197 -0.0198,-0.31056 -0.14291,-0.66509 -0.19206,-0.80667 -0.369,-1.06282 -1.67944,-1.55973 -2.92539,-1.13706 -1.31725,0.44686 -3.63892,2.64769 -5.60711,5.23164 -1.89515,2.56715 -2.7131,4.52711 -2.31959,5.82306 0.1959,0.64516 0.62869,0.90786 1.68907,0.89524 -0.61786,2.64756 -3.77278,8.40665 -4.74469,8.68453 -0.41628,0.11902 -0.89176,-0.29198 -1.05543,-0.86923 -0.68969,-2.43242 -0.48594,-9.31397 0.25798,-16.00985 -2.55885,1.12928 -5.13579,2.2279 -7.73011,3.2952 -0.2536,2.29859 -0.25496,3.12224 -0.30784,5.59671 -0.025,0.88621 -0.0519,1.77262 -0.0807,2.65924 -0.0107,0.62332 -0.0223,1.24673 -0.0348,1.87025 -1.12588,2.78946 -3.78613,6.91943 -4.65871,7.13122 -0.42082,0.10214 -0.86191,-0.25474 -1.01966,-0.91101 -0.35849,-1.49131 -0.28952,-7.4542 0.13618,-10.53314 0.16182,-1.19941 0.31908,-2.39861 0.4718,-3.59758 0.0672,-0.63584 0.13314,-1.2716 0.1979,-1.90728 -2.61621,1.07971 -5.25078,2.12751 -7.90298,3.14268 -0.7261,8.10175 -0.81734,10.99778 0.0495,14.97226 1.10234,5.05408 3.9694,8.35142 6.84286,7.68199 2.02619,-0.47204 4.16844,-2.28797 8.12614,-7.41825 1.9714,3.04929 3.77327,4.27907 5.5671,3.78538 3.40947,-0.93833 9.12368,-8.19618 12.54262,-16.30257 0.45216,-1.09475 0.89784,-2.19008 1.33705,-3.28592 z"
           id="path4077" />
        <path
           d="m 543.42925,815.29476 c 3.10641,-1.25987 4.61834,-4.68468 3.41025,-7.51253 -1.20757,-2.82664 -4.6822,-4.11292 -7.56653,-2.94244 -3.02992,1.22956 -4.65436,4.5001 -3.55115,7.37025 1.13027,2.94055 4.60088,4.34465 7.70743,3.08472 z m 6.37034,29.1064 c 0.11586,-2.13794 0.21717,-4.2737 0.30397,-6.40711 -1.3464,0.53584 -2.6961,1.06341 -4.049,1.58269 -0.81212,0.31171 -1.21727,0.22343 -1.43018,-0.33704 -0.16086,-0.42346 -0.15568,-0.90031 -0.0742,-2.37977 0.40565,-5.61568 0.70564,-11.2169 0.90076,-16.80044 -2.34879,1.51996 -4.7222,3.01359 -7.11959,4.48012 -0.34729,4.94162 -0.77874,9.89472 -1.29493,14.85697 -0.26794,2.32546 -0.175,4.43773 0.17338,5.42886 0.8427,2.3975 3.81288,2.89459 8.13114,1.27832 1.48998,-0.55768 2.97623,-1.12523 4.45864,-1.7026 z"
           id="path4079" />
        <path
           d="m 572.23212,834.77695 c -0.002,-2.15314 -0.0197,-4.30313 -0.0517,-6.44981 -1.75097,0.83849 -3.50884,1.6627 -5.27338,2.47252 -2.13411,0.97941 -2.78543,1.01235 -3.06003,0.40063 -0.12489,-0.27821 -0.11994,-0.26934 -0.10776,-1.9254 0.0927,-3.36053 0.14715,-6.71383 0.16377,-10.05928 1.70137,-0.79339 3.39627,-1.60071 5.08448,-2.4218 -0.0684,-2.19069 -0.15241,-4.37769 -0.25186,-6.56086 -1.60324,0.79527 -3.21272,1.57784 -4.82827,2.34758 -0.0591,-3.51643 -0.1596,-7.02359 -0.3011,-10.52076 -2.20669,1.39311 -4.43257,2.7615 -6.67713,4.10455 -0.0112,3.22886 -0.059,6.46528 -0.14358,9.70865 -0.69203,0.31023 -1.3851,0.61812 -2.07919,0.92366 -0.9688,0.42644 -1.93962,0.84831 -2.91241,1.26561 -0.0463,2.19615 -0.10891,4.39534 -0.18789,6.59736 1.70531,-0.71532 3.40482,-1.44442 5.09828,-2.1872 -0.0678,3.33293 -0.17298,6.67298 -0.31573,10.01946 -0.0749,2.48297 -0.0563,3.43464 0.35274,4.40971 1.01306,2.41502 3.30807,2.9109 7.45107,1.44262 0.6999,-0.24801 1.45213,-0.55244 2.25763,-0.91358 1.93519,-0.86764 3.86265,-1.75225 5.7821,-2.65366 z"
           id="path4081" />
        <path
           d="m 574.8128,833.96837 c 2.36437,-1.54747 4.70677,-3.12035 7.02675,-4.71799 0.61231,-4.90906 1.10129,-8.09972 2.23342,-11.7303 1.28864,-4.50818 2.85023,-8.13079 3.65485,-8.58197 0.29448,-0.16512 0.73643,-0.0697 0.88364,0.19165 0.11011,0.19548 0.25807,0.63014 0.29232,1.38447 0.26038,3.00783 0.49193,6.02422 0.69448,9.04874 0.051,0.99693 0.31857,2.22018 0.67688,2.87774 0.96478,1.77054 2.60718,1.84242 5.76818,0.063 2.48884,-1.40108 4.96116,-2.83137 7.41631,-4.29046 -0.23691,-2.12757 -0.48764,-4.25066 -0.75211,-6.36914 -1.14067,0.68915 -2.28516,1.37196 -3.43343,2.04837 -1.49893,0.88298 -2.44019,0.9894 -2.81536,0.34182 -0.18818,-0.32483 -0.30069,-0.69206 -0.37807,-1.34134 -0.26117,-3.02829 -0.5518,-6.04764 -0.87167,-9.0576 -0.1368,-1.05599 -0.50738,-2.48938 -0.97086,-3.26369 -1.11766,-1.86721 -3.56298,-2.23213 -5.84001,-0.90999 -2.42723,1.40936 -3.94391,4.18355 -7.28005,11.78433 -0.84966,-11.5368 -2.12198,-22.95552 -3.80614,-34.23218 -1.95692,1.5563 -3.93552,3.09164 -5.93533,4.60537 2.1092,17.10891 3.2671,34.5197 3.4362,52.14922 z"
           id="path4083" />
        <path
           d="m 648.45035,786.66282 c -0.531,-2.08662 -1.07556,-4.16657 -1.6336,-6.23971 -1.26895,1.05719 -2.54522,2.10555 -3.82867,3.14499 -0.94681,0.76681 -1.81792,0.78934 -2.42709,0.0289 -0.78673,-0.98211 -1.94194,-5.19071 -2.32071,-8.44541 -1.81443,1.61259 -3.64656,3.20686 -5.49597,4.78247 0.47305,4.36673 0.77545,5.68647 1.68454,8.18263 -0.1621,1.63332 -0.88418,2.84982 -2.6942,4.20006 -1.8132,1.35261 -2.99382,1.6486 -3.61208,0.80325 -1.22299,-1.67219 -0.34186,-7.76829 1.57664,-11.86757 1.52271,-3.09381 3.54275,-5.36777 8.25882,-9.36397 -0.0832,-2.42864 -0.19172,-4.84883 -0.32532,-7.26009 -1.22505,0.93751 -1.58217,1.23883 -2.44895,1.96062 -5.47308,4.55757 -9.06792,8.93803 -11.6792,14.27614 -3.20223,6.67557 -3.72185,13.61798 -0.88965,17.66884 1.75931,2.51631 3.74192,3.06928 6.73471,1.93924 1.62647,-0.61191 3.39764,-1.62275 5.03235,-2.83483 2.47278,-1.83349 3.17816,-2.85788 3.7261,-5.44387 2.1572,0.50954 3.24849,0.15602 5.52797,-1.65007 1.61569,-1.28015 3.22054,-2.57407 4.81431,-3.88161 z"
           id="path4085" />
        <path
           d="m 667.30129,770.07075 c 6.16911,-5.82222 12.13324,-11.86105 17.87818,-18.10198 2.62853,-2.85546 4.20335,-5.3616 5.05459,-7.87995 1.24031,-3.70917 0.37339,-7.88359 -1.92336,-9.82233 -2.13344,-1.80089 -4.8957,-2.13543 -10.86358,-1.7144 -6.68593,0.51396 -7.52896,0.34586 -8.50687,-0.53481 -1.02342,-0.92166 -1.22554,-4.46216 -0.47316,-8.24772 0.96864,-5.22246 2.30747,-9.40286 3.58962,-10.97897 0.44194,-0.54326 1.0022,-0.66499 1.46911,-0.28793 0.80801,0.65251 1.64314,3.68319 2.58453,10.26361 0.60686,4.84312 0.17155,1.40121 0.83167,6.43062 1.85292,-2.15026 3.67889,-4.32365 5.47727,-6.51952 -0.0409,-0.23413 -0.0821,-0.46813 -0.12344,-0.70202 -0.15153,-0.95268 -0.30706,-1.90333 -0.46658,-2.85194 -1.20338,-7.5953 -3.56603,-13.61637 -5.51849,-15.11123 -1.90969,-1.46211 -4.62475,-0.45058 -7.03284,2.56834 -3.69121,4.62748 -6.29265,11.16939 -7.60893,18.71686 -0.88879,5.09624 -0.0266,10.13821 2.28316,12.31327 1.6395,1.54391 3.88819,2.04981 9.24318,1.77089 6.54752,-0.35237 8.18982,-0.30211 9.44274,0.80644 1.83289,1.62168 1.1564,4.25442 -2.14966,7.84023 -4.22381,4.58122 -8.56789,9.0515 -13.02631,13.40478 -0.0167,2.86757 -0.0702,5.7471 -0.16083,8.63776 z"
           style="font-style:normal;font-variant:normal;font-weight:bold;font-stretch:normal;font-size:60px;line-height:125%;font-family:Giulio;-inkscape-font-specification:'Giulio, Bold';text-align:start;writing-mode:lr-tb;text-anchor:start"
           id="path4087" />
        <path
           d="m 697.26297,738.15467 c 1.53792,-2.39865 3.04511,-4.81226 4.52123,-7.2401 -1.54109,-5.0197 -2.64835,-10.29044 -3.12587,-14.87554 -0.24352,-3.05622 -0.24596,-5.34928 0.10161,-5.82799 0.2479,-0.34143 0.68901,-0.43984 0.93215,-0.26413 0.24008,0.17349 0.35705,0.15278 1.03821,1.37957 2.45658,4.40566 4.8476,8.86829 7.17165,13.386 1.42242,-2.46945 2.81331,-4.9525 4.17236,-7.44841 -2.94027,-8.02287 -5.03866,-18.9627 -3.82516,-20.81901 0.18475,-0.28263 0.46539,-0.30154 0.71679,-0.13773 0.18796,0.12248 0.52007,0.43956 0.89903,1.09258 1.62632,2.58413 3.22967,5.19032 4.80973,7.81815 0.50549,0.86132 1.4178,1.79169 2.10186,2.25159 1.61,1.08242 3.20204,0.24271 5.32651,-3.02433 0.77238,-1.18777 1.53772,-2.38022 2.29595,-3.57727 0.67711,-1.06949 1.34844,-2.14254 2.01396,-3.2191 -1.17794,-1.80286 -2.36682,-3.59468 -3.56649,-5.37537 -0.60219,0.99107 -1.20934,1.97918 -1.82143,2.96426 -0.83755,1.34794 -1.5493,2.06364 -2.08984,2.17005 0,0 0,0 0,0 -0.1708,0.0336 -0.32494,0.007 -0.46161,-0.08 -0.12902,-0.0818 -0.36963,-0.31422 -0.62585,-0.60871 -0.24689,-0.28378 -0.50865,-0.62562 -0.69828,-0.94553 -1.2922,-2.07403 -2.59943,-4.13338 -3.92143,-6.17792 -1.47539,-2.29927 -1.92178,-2.76576 -2.99856,-3.426 -1.98406,-1.21654 -4.23046,-0.54886 -5.67967,1.7441 -0.0584,0.0923 -0.11461,0.18461 -0.16879,0.27704 0,0 0,0 0,0 -1.05927,1.80758 -1.31115,3.63407 -1.24776,7.29705 0.0308,3.34153 0.0504,4.2377 0.27279,6.44254 -0.95069,-1.26218 -1.60511,-1.90954 -2.22261,-2.33049 -1.79802,-1.22573 -4.10727,-0.49029 -5.6183,1.66274 -1.71607,2.44518 -1.94615,5.23133 -1.70744,13.92205 -1.13762,-2.05882 -2.28927,-4.10572 -3.45481,-6.14051 -1.33438,2.33715 -2.69906,4.66157 -4.0937,6.97252 3.82908,7.23746 7.48234,14.6194 10.95377,22.13786 z"
           id="path4089" />
        <path
           d="m 711.45011,664.76781 c 1.58319,-2.95294 0.55632,-6.55228 -2.18001,-7.95476 -2.7352,-1.4019 -6.22816,-0.17099 -7.69698,2.57031 -1.54292,2.87958 -0.70185,6.43089 1.98021,7.93366 2.74788,1.53966 6.31346,0.40397 7.89678,-2.54921 z m 23.49634,18.31488 c -1.27657,-1.71867 -2.56305,-3.42623 -3.8593,-5.1226 -0.69331,1.27263 -1.3945,2.54101 -2.10355,3.80504 -0.42563,0.75877 -0.79372,0.94975 -1.31551,0.65466 -0.39427,-0.22297 -0.69481,-0.59307 -1.57721,-1.7832 -3.27521,-4.57886 -6.62329,-9.07813 -10.04141,-13.49633 -0.83466,2.66921 -1.70534,5.33367 -2.6122,7.99241 2.8898,4.02235 5.72152,8.10799 8.49311,12.25583 1.27881,1.96043 2.69898,3.52654 3.59993,4.06667 2.17927,1.30653 4.7828,-0.20888 7.07328,-4.21273 0.79026,-1.38141 1.57123,-2.76803 2.34286,-4.15975 z"
           id="path4091" />
        <path
           d="m 743.76529,666.12474 c -1.35368,-1.67437 -2.717,-3.33688 -4.08983,-4.98747 -0.89872,1.88311 -1.8141,3.75832 -2.74605,5.6253 -0.77696,1.5565 -1.258,1.99407 -1.79105,1.72355 -0.53885,-0.27346 -1.00275,-0.99657 -2.29433,-2.61007 -8.9295,-11.28844 -18.30727,-22.03938 -28.08577,-32.22784 -0.69263,2.44789 -1.41653,4.89098 -2.1717,7.32839 9.32706,10.26235 18.25166,21.05947 26.72847,32.3675 2.70641,3.6047 2.78427,3.45612 3.93969,4.07919 2.49419,1.345 4.84935,-0.0808 7.23334,-4.73549 1.11478,-2.17655 2.20724,-4.36439 3.27723,-6.56306 z"
           id="path4093" />
        <path
           d="m 754.5518,641.6992 c -1.47403,-1.56953 -2.95674,-3.12661 -4.448,-4.67117 -1.53494,3.94255 -3.14022,7.85775 -4.81495,11.74308 -1.3e-4,-0.50495 -0.001,-1.00955 -0.004,-1.51377 0.1281,-9.32097 -2.70071,-15.79358 -6.81962,-17.36361 -3.36937,-1.28433 -6.39743,0.40212 -7.96157,4.26846 -3.28648,8.12368 0.72043,21.70418 8.03801,25.16716 2.84787,1.34773 5.79371,0.91382 7.89386,-1.13953 1.24227,-1.2714 2.60716,-3.37383 3.83927,-6.21112 1.47836,-3.40435 2.90415,-6.83139 4.27682,-10.2795 z m -14.65165,10.74895 c -3.81589,-3.87426 -5.96683,-11.20729 -4.41443,-15.00701 0.25289,-0.61896 0.75715,-0.86669 1.31344,-0.64147 2.0471,0.82881 3.74025,8.5123 3.10099,15.64848 z"
           id="path4095" />
        <path
           d="m 749.91297,618.34622 c 0.56148,-2.87137 1.08574,-5.7453 1.57282,-8.62083 -9.15394,-8.19551 -18.56234,-15.95057 -28.19527,-23.24941 -0.41542,2.51272 -0.86203,5.02332 -1.33975,7.53095 9.57388,7.65558 18.90506,15.77418 27.9622,24.33929 z m 5.40736,8.05353 c 2.90094,1.02041 6.3039,-0.95069 7.45391,-4.42178 1.12223,-3.38725 -0.40177,-7.08384 -3.2676,-7.97543 -3.00765,-0.93571 -6.28594,1.03622 -7.38483,4.35572 -1.1257,3.40051 0.29801,7.02124 3.19852,8.04149 z"
           id="path4097" />
      </g>
    </g>
  </g>
</svg>
